<svg width="823" height="405" viewBox="0 0 823 405" fill="none" xmlns="http://www.w3.org/2000/svg"><path d="M805 2c5 2 9 2 14 1 3 0 5 2 4 8l-8 2h-13l-14 5c-8 3-17 5-26 6l-28 3h-15l-12 2c-2 1-5 2-7 1h-4l-3 3c-4 3-8 3-13 2-2 0-4 0-6 2l-3 4-5 7c-2 1-4 1-6-1l-5 2h-6c-4-2-8-2-12 0-2 0-4 2-6 4l-2 9c-1 5-3 7-5 5l-4-5c-6-4-8-1-8 10 2 7 6 8 11 4l11-5 6-3c1-3 2-3 2-1v3l1 2 8-1 7-1c4 1 8 2 12 1 5-1 10 0 15 1l12-4 11-4c2-2 4-2 7-2s5 0 8 2c4 2 8 3 13 3l14-3 26 2c2 0 2 1-1 3l-7 5c-1 3-3 5-5 6l-6 3c-5 0-9 2-14 4h-3l-6-2c-2 2-3 3-5 3l-6-1c-4 2-9 3-13 3-1 2-3 3-5 3l-5-1c-5-1-10 0-15 2a299 299 0 0 0-33 11l-7-1-4 2-5 6c-2 3-3 3-4 2l-4-6-6 4-6 4-4 2-2 3c-1 3-2 5-1 7h8c3 0 4 0 3 2l-12 6-14 3-4 2c-1 2-3 2-5 0-2-1-3-4-3-10l-2-4c-2-1-4 0-6 2l3 8 2 2a6 6 0 0 1-1 5l-1 1-6 6-3 2h-4c-2-1-5-1-7 1l-6 3c-2 0-3 1-5 3l-6 2c-2 0-4 2-5 6 0 4 3 4 11-1s17-7 25-7c3 4 5 5 7 3l3-2 3 1c2-3 4-4 6-5l3-2 2-3c3-5 7-4 11 2l1 1 1 1a5 5 0 0 1-1 4v4l2 4h1l1 1 4 1c2-3 4-4 5-4l12-4c2-3 4-4 6-3l5 1 6-2 2-2 3 2 3-1 5-2h4l7-1 7 1c9 0 17-2 25-5 5-3 10-4 15-2 5 3 8 2 11-1l2-1h3l5 1 14-4c4 0 8-1 11-4 5-1 11-1 15 1 2 1 4 2 7 1 2 0 4-2 5-4l9-2c6 0 8 3 5 7-2 2-5 2-7 1h-3l-4 2c-4-2-9-2-13 1-4 2-9 4-13 3l-11 6c-2 2-4 2-6 2s-4 0-5-2h-6l-5 2-3-1-4 1c-1 2-4 2-6 2-2 2-4 3-7 3-2 1-3 4-2 10 2 6 2 10-1 10h-7l-14 8c-2 2-4 2-6 2-3 0-5 0-7-2-4 1-9 3-12 6l-13 4c-3 4-7 6-11 6-4 1-7 2-11 5l-13 6-13 2c-3 0-5 0-7 2l-6 2c-3 1-4 3-3 5l2 2 3 1c3 1 3 3 1 5a43 43 0 0 1-19 11c-4-1-8 1-12 4l-13 2c-4 0-8 2-12 5l-6 3-5 3c-4 0-6 2-5 6 2 4 1 7 0 9-1 3-2 4-3 3s-1 0-1 1c-3 0-5 3-5 7l-4 4-5-2-3 1-3 3-7-2c-4 0-9 1-13 4s-9 4-13 2c-5 2-9 3-14 2l-11 8-14 4-14 1c-5-1-9 0-13 3l-12 5c-5 0-9 0-13 2l-12 6c-5 0-10 2-14 4l-5 2-6 4-5 4c-3 4-2 6 2 6l3 1 4-1 6-1 6-2 5-2c3-2 5-2 7-2l7-2 27-6 27-6 7 1 8 1-7 2-8 4-25 6c-9 1-17 3-25 6l-14 2-14 7c-3 2-7 3-11 3-3 0-5 0-7 2l-6 4-6 1-6 1-7 2c-2 2-4 3-6 2-17 3-34 12-47 27l-7-2c-2-2-3-2-5-2-5 0-10 0-14 2l-14-1a288 288 0 0 1-40 4l-28 3-22-1-26-1c-4 1-8-1-11-4l-6-2-3-1-2-1-13-3c-3-1-5-2-6-4l-5-8c-1 0-2-2-3-8v-14c0-4-2-8-4-11l-3-6-6-5-6-7-3-12-4-9-5-4-5-4c-3-5-5-12-6-19 5-6 6-13 2-19l-5-11v-13a120 120 0 0 1 4-20l-1-5c-4-4-5-13-4-27l3-12v-8l2-2v-13l4-10c1-2 1-5 3-7l2-9 8-15a54 54 0 0 1 2-14l3-3 6 1 5 1 6-7c1-2 3-3 5-3 4 1 7 1 10-1l12-7 7-2 6-2h1l5-2c5-2 10-3 15-2h10c3-1 7-2 11-1 7 0 11 3 12 10 1 5 3 8 6 7l7-1 9-2 3-1 3 1 3 1 4-1 6-1c2-1 5 0 8 1l6-2 3-2 7-2 7-2 6 4 6-1c4-2 9-3 13-3l6-1 5-1 7-4 4-2 14-2 14-4 25-6 25-6c8-3 16-3 24-2 3 4 3 6 1 6-3 0-5 0-7 2l-6 2c-2 0-4 2-5 4-3 1-4 3-2 4 2 2 4 3 6 2l7-1 6-1h14l14-2c9-4 18-6 27-6l28-2c8-2 17-3 26-3 10-1 19-3 29-6l14-1 11 1c4 2 8 2 13 1l13-1c4 0 8-1 12-4s9-5 13-6c4 2 8 3 13 2l11-2 27-7 26-5 13-3 13-3h13c4 0 9-2 12-4 4-1 8-2 11-1l11-1 13-3h14l28-7c9-2 18-1 26 1ZM191 66c2 3 2 5-2 6h-4l-3-2 4-5c1-2 3-2 5 1Zm133 288c4 0 5-1 3-4l-7-4c-1-2-3-1-5 2v2l-4 4-4 4c0 1 1 2 4 2l8-2 5-4Zm61-313c1 2 0 4-2 7-3 4-4 1-4-7l2-1c1-1 2 0 4 1Zm56 290 6-2c-1 2-4 3-6 2Zm25-2h-3l-3 1-4 2-4-1h-1l-1-1-2-1h4l3-2 4-1c3 1 5 1 7-1l7-1 6 1-6 4-3 1-4-1Zm27-43c6-4 8-8 5-12-4-4-8-3-13 2l-3 4c-1 4 0 6 3 6h8Zm14 31h6l-6 4c-2 2-3 0-2-4h2Zm8-41c2 3 3 3 2 1 0-2-1-2-2-1Zm4-126 1-2c2 0 1 0-1 1v1Zm16 124c3 0 3 2 1 6-3 4-4 3-4-4l3-2Zm2-86c3 0 3 0 2-1l-6-1c-2 2-1 2 4 2Zm15 86c3-1 4 0 2 2-1 3-3 3-5 0l1-1 2-1Zm14-96-7-1h-4l-3 3 2 2 1 2c2 0 4 0 6-2l5-4Zm-3-37c2 2 4 1 6-3l3-5-5-1c-2-1-5 0-7 1l-2 2c-2 3 0 5 5 6Zm5 98c3-1 4-3 3-6l-1-1-1-1h-3c-5 4-4 7 2 8Zm22 21c2 0 2 1-1 3l-7 5c-2 1-4 2-6 1s-5 0-7 1l-3 1 5-3a104 104 0 0 1 19-8Zm-19-92-2 10c5 0 10-1 14-3l13-7c2-1 3-3 2-5s-3-2-5 1l-1 2-2 1-2 1c-3-4-5-5-5-3l-2 3-2 2-6-6-2 4Zm4-79c0-3-1-4-4-3l-2 4v2c4 2 5 1 6-3Zm27-3c4-2 4-4 2-7l-6-3c-5 0-10 0-14 2l-2 1c-2 8 0 11 6 9l14-2Zm-12 39 3 6c2 3 4 2 6-2l-3-6c-2-3-4-2-6 2Zm6-72c-2 3-2 5-1 7l4 2 3-1c2-2 2-5 0-7l-3-1h-3Zm20 106c-2 0-2-3-1-10h4c0 6-1 9-3 10Zm11 64c2 1 2 2 0 3-3 1-5 0-8-1 3-2 6-2 8-2Zm2-167 1-8c-1-2-2-2-3-1-1 2 0 4 2 8v1Zm9 85 2-1 1-1 2 1 2 1c1 9-3 13-10 13-4-4-4-8 2-13h1Zm2-18c2-3 3-3 3 0s-1 3-3 0Zm44 41c-3 3-3 4 0 4 3 3 4 2 4-2s-1-5-4-2Zm36-110v5c-1 0-2-1-2-5h2Zm23 118 4-1 4 1c1 3 0 5-3 6-4 4-8 7-12 8-5 1-9 0-13-2l-3-3v-4c1-4 2-5 4-3 2 3 3 2 4-1 1-4 2-7 4-9 3-3 5-2 6 2s3 6 5 6Z" fill="#D9D9D9"/></svg>