<svg xmlns="http://www.w3.org/2000/svg" width="1430" height="161">
  <g fill="#621EF3" fill-rule="evenodd">
    <path d="M550.3 37.9c0 .2.2.4.5.5-.1.2-.3.4-.4.6-.2 2.8 1.1 3.9 3.8 3.4-.1-1.1 1.1-1 1.1-2.1-.2-2.4-2.4-3.4-3.9-2.4h-1.1m-102.8 4.7h2.1c1.1-.4 0-1-1.4-1.2-.6.3-.9.7-.7 1.2M430 45.1c-1 .4-.7 1.9 1.4 2 1.6-.5 0-1.9-1.4-2m128.1-6.9c.5-.1 1.4 0 1.4-.2-.6 0-1.4-.1-1.4.2m-.9.1c1.1.9 5.1 1.9 8 1.2-1.7-.7-5.9-.5-8-1.2M400.3 49.8c-4.5-.1-3.2 1.8-1.1 2.4 1.9-.8 3-1.2 1.1-2.4m-8.8 24.6c-.6.3-2.9 2.3.6 2.1.7-2.3 4.4-4.5 4.1-7-.7 0-1.7 0-1.8.2.2 1.2-3.3 2.8-2.9 4.7m989.7-32.7c.1-1.7-2.1-1.6-4-1.7-.1 1.3 2.5 3 4 1.7m-45.1 23.6c-.4 0-.8 0-1.2-.1 0 .5-.1 1-.1 1.5.6 0 1.2.1 1.8.1 0-.3 0-.7.1-1-.5.1-.6-.2-.6-.5m8.2 13c10.1 2.5 8.7-12.5-.5-9.3-3 2.9-1 5.7.5 9.3m-28.7-7.9c3.5.6 2.4-2 1.4-2.9-1.3.4-1.4 1.6-1.4 2.9m11.7 1.1c-1.1.4-2.1.8-2 2.4.5.4 1.3.6 2.4.6 1.4-.9-.7-1.5-.4-3m12.3 3c-1-.2-1.1.4-1.8.4-.3 1 2.7.9 1.8-.4m-51.4 11.7c-.6-2.4-4.1-4.9-7.3-3-1 1.8-1 5.3.1 6.7 1.5.4 2 .1 2.4.6 2.8-.3 3.4-2.7 4.8-4.3m-17.8-1.1c1.8 0 1.6-2.3-.5-2-.3 1 .4 1.3.5 2m-6.3-2.6c-2 .3-1.6 2.7.4 3 .6-1.4-.8-1.6-.4-3m108.1 18c-1.6.7-.6 1.2-.7 2.7 1.7.4 1.1.4 2.8.2-.2-1.4-1.4-1.9-2.1-2.9m-4.4-9.7c-1.4 0-.5 2.1-.2 2.5 1.9-.3-.2-1.6.2-2.5"/>
    <path d="M1448.3 306.4c-.4-2.6-3.2-4.9-6.1-5.8-1-.8-2.4-.3-3.7-.2V88.2H1378c-1.5-1.3-3.4-1.1-5.4-.4-2.1-.8-5.1-2.2-6.3-1.6-.7-2.6-2.7-.5-3.7-1.8-1.2-3.1-.3-5.7 2-7.9l-1.8-3c-2.3.7-5.6 2.4-6.5 2.6-.2.6-.2 1.3-.1 2.1.9 2.4 3.4-1.1 4 2.3-1.5 1.6-2.2-.1-3.4 0-1.2 1.4-.8 3.2-2 4.5-2 .8-4-1.5-6.5-.8-2.4.7-4.4 2.3-6.1 4.1H1310c-.7-.1-1.4-.1-2.1 0h-25.5c0-.1-.1-.2-.1-.2-.1.1-.3.2-.4.2h-2.8c-.2-.1-.5-.2-.6-.4l-.4.4h-.1c.1-.4 0-.9-.3-1.4-.5.4-.9.4-1.3.1-.5.3-.6.9-.4 1.4h-5c.2-.2.3-.4.5-.6-1.7-1.3-2.4-2.7-1.6-4.4.7-.7 2.2.5 2.6-.9.9.4 3-.3 4.5-.7 1.7.5 3.2.6 4.3-.5-.5-1.1-1.5-2.2-.7-3.6-3.1-1.6-2.6-3.7-5.2-5.4-2.2-.4-2.4 0-4.6-1.1-2.5.7-5.8-.2-8.1-.3-.3.8-.9.9-1.7.3-.6.9-1.7 1.8-2.1.8-2.3 1.7-5.9 2.7-6.7 6.2.1.1.2.2.3.2-2.8 1.3-5.7 2.3-9.5 1.4-1-6-6.4-7.4-10.9-9.8 1.4-2.6 3.3-1.3 6.3-2.3-1.7-4.4-5.5.2-8.1-2.9-.1-2.9 1-3.8 1.2-5.8-1.9-.3-1.2 2.9-2.9 1.2.9-3.6.3-1.8 0-5.8 8.1-2.5 12.1-9.1 11.5-20.2-3.8-1.8-10.3-5.4-15.5-4.6-3.6.5-4.5 3.8-7.5 5.2-.2 2.9.1 5.7.4 8.1h-.1c0 .1.1.1.1.2.3 2.1.6 3.9.7 5.5-2.3.6-2.7 3.1-5.8 2.9.3-1.8-.7-2.8-1.7-1.7-.9 2.3 1.5 1.2 1.7 2.3-1.3 1.9-3 3.3-5.1 4.4-.3-.7-.7-1.4-1.3-2.1-.6.3-1-.7-1.4-1.2-.7 1.7-2.9-.9-4.4-.7-.7.5-1.4.9-1.8.4-.8.4-1.4.7-2 1.1-.2-.1-.4-.2-.8-.1v.7c-.7.5-1.1 1-1.6 1.5-3.7-3-7.1-6.4-12.8-7.4-1.7-1.9-5.9-4.2-8.6-1.7-.6 2.2 1.4 1.6 1.1 3.5 4.5 1.6 8 4.3 9.5 9-.3.1-.6.3-.9.5-1.3-.4-2.6-.7-3.5-1.4-3.3 2.4-5.1 2.7-10.4 2.9-.8-.3-1.4-.9-1.7-1.7-7.4-2.2-15.3-3.9-19.6-9.2-4.4-1.2-7.9-6.2-12.7-5.2V50c6.2 4 9 11.4 17.8 12.7 3 2.8 6.2 5.3 9.2 8.1 1.2 2.3 1.2 4.6.9 6.9-5.1-1.7-11.8-3.6-15.7-.9-3-.6-3.5.1-5.7-.8 0-2.9-3.5-3.1-4.5-5.3-1.5-.2-3-.4-4.6-.7-1.4-3.4-1.2-8.2-1.1-13-.8 2.6-.8 5.5-3.3 7.1-5.8-.9-7.3 3.9-13.7 2.1.5-1.9.3-3.3-1.9-3.2-.7 2.1.6 2.6-.1 4.7-5 5.9-12.8-1.2-19.4-2.8-.4-1.4-1.7-2.1-1.1-4.2-4.6 0-6.2-4.7-10.6-3.3-2.5 3.4 2.4 7.4 4.3 10.5 4.8 1.2 9.6 2.3 11.4 5.7-2.8 1.9-7.1 1.9-10.8 2.5-.7-1.8-3.1-1-4.4-1.8-.9-.5-.6-1.7-1.4-2.5-1.7-1.8-4.6-2.1-5.9-3.2-.5-.4-1.1-1.7-2-2.6-.8-.8-2.4-1.4-3.2-2.2-.4-.4 0-1.4-.3-1.8-.4-.6-1.8-.4-2.2-.9-1.9-2.3-1.6-4.5-3.2-6.3-1.9-.1-2.3-1.4-4.5-1.2-.4 5.6 4.8 7 6.6 10.8.8 3.7 3.3 7.5 1.9 11.3-6.4 1.2-10.3 5.7-14.7 9.6-5.4-.2-12.7-3.4-18.9-2.1 0 2.7 2.2 3.8 3.9 5.1h-8.9c-.8-.6-1.8-.9-2.9-.9-1.1 0-2.1.4-2.9.9H1011c-.9-.8-2.1-1.3-3.5-1.3s-2.6.5-3.5 1.3h-10c-1-1-2.4-1.7-4-1.7s-3.1.7-4 1.7h-9.3c-1-1.2-2.7-2-4.5-2-1.9 0-3.5.8-4.6 2h-8.3c-.6-.7-1.3-1.3-2.2-1.7 4.9-.2 10.3-.2 11.9-1.6-1.6-1.8-10-.5-13.1.2-6.5 0-12.7.1-18.1.5-.5-.1-1-.2-1.6-.2-1 0-1.9.2-2.8.6-3.7.4-6.9 1-9.3 1.9-1.2-1.7-3.4-2.9-5.8-2.9-2.6 0-4.8 1.3-6 3.1h-5.5c-1.2-2.1-3.6-3.5-6.4-3.5-1.2 0-2.2.3-3.2.7-1-.2-2-.4-3.1-.5-1-1.5 2.3-2.8 3.7-4.1.1-.1.3-.1.4-.2.7.2 1.4.4 2.2.4 2.5 0 4.6-1.3 5.6-3.1.3-.2.5-.5.5-.8h-.2c.2-.5.3-1.1.3-1.7 0-3.1-2.8-5.6-6.3-5.6s-6.3 2.5-6.3 5.6c0 1.7.8 3.2 2.2 4.2-.6 0-1.2 0-1.6.1-.4.1-.2.5-.6.7-.9.2-2.8.4-3.8.7-1.1.3-1.9.8-2.5.9-1 .2-2.6.3-4.2.4.1-.2.2-.5.2-.8-.9-.2-1 .5-1.7.6 0 .2.1.3.2.4-.5.1-1 .2-1.4.3-.9.3-.9.7-1.9.9-1.6.2-4-.2-5 .4-3.9-.4-8.5-.7-11.2-1.5 2.5-1.2 7.8-1.3 13.1-1.5.6-.3 1.4-.5 2.2-.8.3 0 .5.1.7.1 1 .6 2.2.9 3.5.9h.2c3.7 0 6.6-2.6 6.6-5.9 0-3.3-3-5.9-6.6-5.9h-.2c-3.7 0-6.6 2.6-6.6 5.9 0 .7.2 1.5.5 2.1-1.7.3-3.5.6-5.8.5.2.6-.6.9-1.3 1.2 1-1 1.7-2.3 1.7-3.8 0-3.1-2.8-5.6-6.3-5.6s-6.3 2.5-6.3 5.6c0 2 1.2 3.7 3 4.7-4.4.5-8.8.9-12 .1 2-.9 3.4-2.7 3.4-4.8 0-1.3-.5-2.5-1.4-3.4.3-1.1 0-2.3-1.5-2.5 0 .4-.1.8-.3 1.2-.8-.4-1.8-.6-2.8-.6-3.3 0-6 2.4-6 5.4 0 1.3.5 2.5 1.4 3.4-3.3-.2-5-1-8.1-1.4.3-.6.5-1.3.5-2 0-2.8-2.6-5.1-5.7-5.1-3.2 0-5.7 2.3-5.7 5.1 0 1.6.8 2.9 2.1 3.9h-4.5c-1.4.8-5.2.7-5.6 1.7-2.5.2-3-.1-6.2 0-3.3-1.1-9.6-.9-15-.6.1-.1.3-.1.4-.1-.1-.1-.3-.2-.4-.4 2.5-.3 4.4-2.2 4.4-4.5 0-2.5-2.3-4.6-5.1-4.6s-5.1 2-5.1 4.6c0 2.1 1.6 3.8 3.7 4.4l-.3.3c.2.1.3.3.5.4-.4 0-.8 0-1.1.1-3.8 1.7-9.2 2.8-8.1 6.1.3.6.9 1.1 1.6 1.5h-5c-1-1-2.4-1.7-4-1.7s-3 .7-4 1.7h-8.7c1.8-1.5 3.9-2.7 4.9-5 4.5-.8 6.9 2.7 12.7 1.2 2.5-1.9 6.7-2.1 8.6-4.6-1-3-6.1-1.4-10.8-.8.4-.3.8-.6 1.2-1 2.3.6 5.1-2.8 2.6-7.6-1.2.5-2.3 1-3.5 1.5-.8-.5-1.8-.9-2.9-.9-2.7 0-4.8 1.9-4.8 4.3 0 1.3.6 2.4 1.7 3.2-.7-.4-1.4-.9-1.8-1.7-2.9-.3-6.8 1.2-8.7-.1.2-.4.3-.8.3-1.3 0-2.2-2-4-4.5-4-1.9 0-3.6 1.1-4.2 2.6-3.7-3.5-10-6.9-5.8-13.3-2.8-1.3-5.1 1-5.8 3.5-3.7-.3-6.3.6-7.5-1.2-3-.1-6.5.4-8.6-.6-4.2-4.1-2.2-14.3-8.6-16.2-7.7-1.4-14.7 5-19 0 .4 2.2.5 2.4-.6 4-4-.2-9 .5-12.1-.6-.7-.1-.5-1-.6-1.7-4.8-.5-5.2-3.2-10.9-1.7 2.9 5.5-7.3 3.5-4 9.2-3.2 2.3-4.5 6.6-9.8 6.9-2.4 1.9-3 5.5-6.9 5.8 1.9 2.5.2 4.8-1.7 6.3-2.9.3-3.4-2.3-5.2 0-1.8-2-3.3-2.3-4.6-1.2.5 2.6 5.2.9 5.8 3.5-2.3.7-5.6.3-6.3-1.7-.6 0-.4.7-.6 1.2-1.4-.6-1.9-1.9-3.9-1.9.2-.6.5-.9.2-2.1-.7-.1-1.4.1-1.8.9-.5-.1-.4-.5-.2-.8-2.7 0 1.5 1.5-.1 2.6h.7c.1 3.4 4.4 2.7 2.9 7.7 4.6 1.1 4.4-2.6 8.1-2.3 2 .3.8 3.8 1.2 5.8-.2 1.7-2.9.8-3.4 2.1h-2.3c-.6-.4-1-.9-1.8-1-.5.5-.9.8-1.3 1H636c-1.7-.7-3.3-2.9-6.2-2.7.6 1.7-1.3 1-2.3 1.2-.2.7-.3 1.2-.3 1.6h-6c0-.5-.1-1-.6-1-.8-.1-1.3.4-1.5 1h-12.5c2.2-1.1 4.2-2.9 5.9-5.6.2-3 .4-6-.7-8.7 1.6.6 3.2 1.2 5.4 1.2-1.8-1.8-4.2-2.9-6.9-3.7-.5-.6-1.1-1.2-1.8-1.7-1.9-3.2-6.4-2.9-9.1-3.8-.3.2-.6.3-.9.5-.4 0-.7.2-.9.5-4.4 2.8-8.4 7.1-7.9 12.7.1.7 1.3 4.3 1.8 5 1.2 1.6 3.3 2.3 5 3.5h-26.8c-1.7-4.4-3.7-8.8-8.9-12.3-6.1-1.6-11.2.2-15.2 6-.6 2.2-.9 4.3-1.1 6.3h-15c.6-.5 1.3-.9 2-1.1.5-.6.4-1.6.5-2.5.7-.1 1.3-.2 1.9-.3-.3-.6-.7-1.1-1.2-1.5-2.1-2.8-10.2-3.5-12.2-7.9 1.3-2.3 3-4.8 3.2-6.8 2.1-2.7 6.1-6 9-10.1 1.2-8.1 10.4-7.6 16.4-8 2.9-2.1 5-5 6.8-7.4-.8-4.1-.3-8.7-4.6-11.8-.8-3.9-1.3-7.8-2-11.7-3.8-1.9-5.6-3.1-9.2-2.5-3.9 3.1-4.1 6.8-3.4 10.7-1.5 3.4-4.4 5.7-7.5 6.8-1.1-.2-2.2-.3-2.9-.4-.6 0-.7.6-.8 1.1-4.2.1-7.8-2.3-7.8-7.7-7.3-4.5-14.5-8.4-20.3-7.5-4.6 4.2-10.4 4.1-15.1 8-1.1-.7-4-.5-3.8-1.5-3 2.1-8.3 2.5-11.7-2.6-2.1 0-3.9 1.3-5.6 2.8-1.7-1.2-1.1-2.4-3.2-2.5-2.8 6.1 3.3 9.8 1.8 15.6-1 1.9-2.9.7-4.2 1.6.5.7-1 2-.1 2.6-3.5 2.1-7.7 1.6-11.7 2 0 1.1 1.2 1.9 1.7 2.9-3.7 4-8.6 3.4-14 1.4.1 1.4 2.9 2 3.4 3.3-.6 2.7-2.8 4-5.3 3.6.3.7.7 1.4 1.1 2.1-1.1.6-1.9 1.7-1.9 2.9 0 1.9 1.7 3.4 3.7 3.4.4 0 .8-.1 1.1-.2.1.2.1.5.1.7-2 2.9-1.8 4.6-2.2 7.2-1.8.3-3.1 1.7-3.4 3.3l-.9-.3c.4 3.2 1.3 7.3-2 8.2 1.1 1.2 1 2.7 1.3 4h-7.2c-.9-.7-2.1-1.2-3.4-1.2-.4 0-.7 0-1.1.1l-2.1-.7c-.3.6.2.9.8 1.2-.4.2-.7.4-1 .6h-9.2c-1-.9-2.3-1.4-3.8-1.4s-2.8.5-3.8 1.4h-8.4c-1.1-1-2.5-1.7-4.2-1.7-1.7 0-3.2.6-4.2 1.7h-7.6c-1.1-1.2-2.7-1.9-4.6-1.9h-.2c-1.8 0-3.5.8-4.6 1.9H357c4-1.5 7.8-4.1 10.4-6.8 2.4-.4 4.2-2.3 4.2-4.6 0-1.6-.9-3.1-2.3-3.9-.3-2.6-1.1-5.2-2.3-7.5 2-.2 3.5-1.8 3.5-3.7 0-2.1-1.8-3.7-4.1-3.7h-.2c-1.6 0-2.9.8-3.6 2.1-.2-.2-.4-.3-.6-.5.1-.6 1.1-.5 1.1-1.3.4-2.9-2.7-1.9-3.1-3.9-4.2 0-6.8-.7-8.7-1.9-3.2 2.1-11.5-2.5-13.2 1.8 1.5 3.2 7.6 1.3 8.9 4.8h.1c-.7.6-1.1 1.4-1.2 2.3-2.3 1.5-4.3 3.3-5.6 5.2-2.7 5.9-.1 12.8 2.5 20.7.4.3.9.5 1.3.8h-3.6c0-.3 0-.5-.1-.8-1.3-5-7.1-4.2-10.8-3.4-2.2-9.9-9.8-14.8-17.9-10.6-5.7-1.8-9.4-7.1-18.5-3.3-2.9-.7-5.3-3.5-5.9-6.7.3-.5.5-1 .5-1.6 0-1.8-1.6-3.3-3.6-3.3-1 0-1.9.4-2.6 1-4.4-2-8.8-3.8-13-6.1-6.5.4-12.3 2.6-18.9 5.1-3 .2-5.9.3-8.4-.4-1.8-.1-1.8-3.3-3.3-4-2.3-.2-4-1.4-7.1-.1-1.2-1-1.3-3.6-2.3-4.8-5.5-2.9-15.1 1-11.4 9.2 1.3.5 2.2 1.5 3 2.8 1.8.2 3.3.9 5.9-.2 1.2 1.1 2 2.9 2.9 4.7 2.4 0 4.2 1 6.7.8.3.5.6.9.9 1.3-.5.3-.7.7-1 1.1-2.3 1.5-9.5 1.3-15.7 1.4-2.5-.3-3.5-1.1-5.2-1.7-3.4-7.5-15.3-6.8-18.7.2-.4 1.5.7 3.9.1 5.3-.3.6-.2 1.1-.1 1.5h-.5c-2.3 0-2.2-.9-3.7-1.2-1.3-.2-4.3.3-3.7-.5-1.1-.1-1.2.1-1.3.4-3.8-1.5-13.3-.8-12.5 1.5 7.5.2 15.2.3 18.7 1.7-.3.8-2.5.8-3.8 1.2 1.6 2.3-1.1 3.5-5.7 4 .5.4 2-.5 4.4-.1 2.3.6 3.5 2.3 1.2 3.1-2.4 0-3.9-.2-4.4-.8-.4.7-2.4.7-5 .5-.2 1.3-5.1.9-7.5 1.4 1.8.8 5.2-.5 6.9.2 1.4.2-1.2.7-1.9.8-4.4 0-6.9-1.5-10.6-.5.1.3 1.1.2 1.9.3-.7.2-1.5.4-2.3.5h-3.9V88c.3-.2.4-.4 0-.7-.1 0-.2 0-.2-.1-.4-.9-1.1-1.6-2.2-2.2.2.7.3 1.4.3 2-1.3 0-2.7 0-3.7-.8-1.9.4-5.9.7-8.7 2H143c-.2-.5-.6-1 .1-.6.8-.3-.5-1-.6-1.5-1.2.4-3.1.1-3.8 1.5.1.3.3.5.5.7h-23.1c-.2-.2-.9-.2-1.3 0h-6.6c.5-.4 1-.7 1.7-.5.4-.8-2.1-.7-2.7-1.6-.4.5-2.8 1-3 2.1h-2c-2.9-4.1-6-7.9-9.1-11.7-4.4-2.9-11.9-2.7-15.5-6.3.2-3.3 3.3-3.6 3.5-6.9-1.7-2.5-3.1-5.3-8.1-4.6-.3-3.5 1.1-5.2 0-8.1-4.6-2.3-9.9-.5-11.5 3.5-2.2-1.1-1.8-4.7-4-5.8 1.8-2.9 2.9-7.6 1.2-11-3.2-.3-4.4-.7-7.5 0-.5 1.8-1.8 2.8-2.3 4.6 2.4 5.5 7.9 7.8 10.4 13.3v5.2c-4.4 2.6-8.8-.6-13.8-1.7-2.5-2.3-5.7-6.3-10.9-4-.8 2.5.3 4 1.2 6.3-.9 3.1-4.9 3.2-8.1 4-1.6-.7-2-2.6-2.9-4-2.2-1.5-4.8.7-8.1 0C10 57.6 8 53.9 6.4 45.4c-.6.1-2.658.1-3.158 0v6.1c.6.5-1 3.403 0 3.503C4.642 57.403 5.3 58.8 6.4 61.6c-.2 8.8-3.5 11.9 0 19v2.9c-.8 1.4-1.6 3.1-2.3 4.8H-.7V321h13.9c1 .2 1.9.4 2.4.2.5 1.4 1.9.2 2.6.9.8 1.7.1 3.1-1.6 4.4.4.5.8 1.1 1.2 1.6 1.7-.5 4.1-1.5 4.7-1.6.2-.4.2-.7.1-1.1-.6-1.3-2.4.7-2.8-1.2 1.1-.9 1.6 0 2.4-.1.9-.8.6-1.7 1.5-2.5 1.5-.5 2.8.7 4.6.3.8-.2 1.5-.5 2.2-.8h7.1c0 .1.1.2.2.3.6.7 1.7.2 2.8-.3h14c.5 1.1 1.1 2.2 1.9 3.2 4.7 2.7 10.5 1.5 13.2-3.2H78c1.8 4 5.9 5.7 7.9 9.5 3.8 1 4.2 5.4 7.5 6.9-.4 2.3.6 3.3.6 5.2 1.2.3 1.6 1.4 3.5 1.2 1.3 1.2-.7 5.7 1.7 5.8 1.1-.4 2.4-4.6 0-5.2 1.2-1.2 2.7-2.1 4.6-1.2.5-1.2-.1-3 1.1-4.6 7.1-1 5.8 6.5 10.9 7.5 2.3 0 2.4-2.2 2.9-4 2.1-4.2 8.7-4 14.4-4.6 4 1.3 4 6.8 10.4 5.8.8-3.1-1.2-4.4-1.1-6.9 1.4-1.8 3-3.5 5.8-4 1.2-2.5 1.6-5.8 3.2-7.9 1.8.5 3.6.9 5 1.7.3.2.5.4.8.6.6.5 1.1 1 1.5 1.7 2.7-.4 4 .6 6.3.6.3 2.5-.2 4-2.9 3.5.4 1.6-.1 2.7-1.1 3.6-.2.1-.4.3-.6.5-1.8 1.4-4.4 2.5-5.3 4.5-.6 2.7.9 3.3 1.7 4.6h5.2c2.2 1.1 3.5 3 4 5.8 3.7 3.4 9.1 5.1 12.1 9.2-.4 1.4-.7 2.8-.6 4h-1.2v1.2c.5-.1.5.2.6.6h.8c.7 3.6 3.6 5.9 8.5 5.2 2-1.1 2.7-3.5 5.2-4 5.3.8 5.2 7.1 6.9 11.5 10.7 3.7 2.9-15.8 14.4-13.3 1.3-1.2 2-3 2.3-5.2 3.5-.7 6-2.4 8.1-4.6 1.3 1.8 1.4 4.7 3.3 5.9-.1.2-.2.3-.4.4.2.4.9.2 1.6.2-.3 2.4.7 3.5 1.7 4.5 3.5-.9 5.2-3.6 6.3-6.9 1.5.2 2.3 1.2 3.4 1.8 0 .1.1.3.1.5.3.1.5 0 .7-.1.7.2 1.5.3 2.7.1.5-1.2 2.4-2.2 1.2-3.5-.3-.9-.8-1.5-1.5-1.9.2-.2.3-.5.4-.8-1.9-.9-4.5-.8-6.7-.4-.3-.5-.1-1.5-.8-1.5.6-2.8 2.3-4.6 3.5-6.9.2-1.7.1-3.1-.1-4.5 1.3-.3 2.8-.4 4.3-.4 3 1.4 3.4 1.5 5.5 3.5-.3.5-.5 1.1-.5 1.7 0 1.9 1.7 3.5 3.8 3.5 2.1 0 3.8-1.6 3.8-3.5 0-.2 0-.4-.1-.7 1 .1 2.1.1 3.4.3 1.8.8 4.2 2.1 7 3.2.5.3 1 .5 1.6.6 1.2.4 2.4.9 3.5 1.2v.1h.1c3.3.9 6.6 1.3 9 .3.5-.8 1.1-1.5 1.7-2.3.7.6 1.7 1 2.8 1 2.3 0 4.2-1.7 4.2-3.8 0-2.1-1.9-3.8-4.2-3.8-.9 0-1.7.2-2.3.6-.7-1.6-1.6-3-1.8-4.9 1.1-1.1 1.6-2.2 1.7-3.3.7.4 1.5.6 2.4.6 2.6 0 4.7-1.9 4.7-4.3s-2.1-4.3-4.7-4.3c-1.3 0-2.5.5-3.4 1.3v-.1c.5-1.9 2.1-3.7 4.5-4.7 13 3.5 25 4.9 32.6-1.9 1.5-.2 2.8-.9 3.8-1.9h6.8c1.2 1.4 3 2.3 5.1 2.3 2.1 0 3.9-.9 5.1-2.3h4.8c-.9.8-1.8 1.8-2.3 3-1.5 3.4 0 5.2 0 7.8 1 1.4 2.4 2.5 4 3.4 1 1.5 2.8 2.6 5 2.6 1.1 0 2.1-.3 3-.8 1-.1 2-.3 2.9-.6.7-2.4 4.7-3.2 3.7-6.1-.5-1.4.8-3.8.4-5.3-.7-1.7-1.9-3-3.3-4.1h3.8c1.3 1.8 3.5 3 6 3h.2c2.2 0 4.2-.9 5.5-2.4.5.1.9.3 1.4.4h5.1c1.2 1 2.8 1.7 4.5 1.7 2.3 0 4.3-1.1 5.5-2.7h5.8c.8 1 1.9 1.7 3.2 2.1-.4.3-.9.6-1.4.9-2.5-1-5.6-.5-8.4 3.1-.2.7-.4 1.3-.5 1.9-1.1-1-2.6-1.7-4.2-1.7-3.2 0-5.8 2.4-5.8 5.3s2.6 5.3 5.8 5.3c2.6 0 4.8-1.6 5.5-3.8.3.3.5.6.8.9-1.1.6-2 2.2-1.8 5.3 1.6.7 3.2 1.4 4.7 2.1 1-1.8 1.2-3.4.9-4.7.1 0 .2.1.3.1 1.5 0 2.8-.3 3.9-.6.7.3 1.4.4 2.1.4 3 0 5.5-2.3 5.5-5.1v-.1c1.9.1 3.8.2 5.7.2.1 2.6 2.4 4.7 5.2 4.7 2.9 0 5.3-2.2 5.3-4.8 0-.2 0-.5-.1-.7 2.1 0 2.7-.2 4.8 0 .2.4.7.6 1.4.8.1 2.5 2.3 4.5 5 4.5 2.2 0 4.1-1.3 4.7-3.2 1.6 1.2 2.1 2.8 2.6 4.5.4-1 0-2.1 2.5-2.8 1.2 0 2.2-.1 3.1-.2.9.9 2.1 1.4 3.5 1.4 2 0 3.7-1.2 4.4-2.8 1-.1 2.1-.1 3.4 0-.3.7.2 1.2 2.5 1.1.4-.8-1.1-.9-.6-1.7.7-.4 1.5-.6 2.3-.8 0 2.2 2 4 4.4 4 2.4 0 4.4-1.8 4.4-4.1 2.6.2 5.3.6 7.9.7.4 1.8 2.1 3.1 4.1 3.1 1.3 0 2.4-.5 3.1-1.3.4 0 .7.1 1 .1.1.1.2.1.3 0 .8.1 1.5.2 2.2.4-.3 1.7-.9 3.7 1.2 3.6.4-.4.8-.8 1.1-1.3.1 1-.1 1.9-.7 2.7-1.7.3-2.8 0-3.2-1.1-.2 1.4-1.6 1.7-3.4 1.6.1 2.7-3.4 2.3-5.1 3.5.3.3.7.4 1 .4-.3.2-.5.4-.7.6-1.4-.4-2.7-.8-4.2.6.1.5.8.3 1.4.4-1.4 1.7-4.3 2-4.5 4.8 3 .9 6.5.3 9.7-.1.2 0 .4.1.6.1.6 0 1.1-.1 1.6-.3.9-.1 1.8-.2 2.6-.1 3.2 3.2 5.9 6.9 10.8 8.1.9 3-1.2 5.8-2.1 8.6-1.6 2.9-5.7 3.6-5.7 7.9 1.7.2 2.1-.7 3.5-.7 1.3-1.3 1.2-3 2.8-4.6.4-.4 1.4-.2 1.7-.6.3-.3 0-1.1.4-1.4.6-.5 1.9-.9 2.6-1.5.7-.6 1.2-1.6 1.6-1.9 1.1-.7 3.4-.8 4.7-2.1.6-.6.5-1.5 1.2-1.9 1.1-.6 2.8.2 3.5-1.1 2.8.7 6.1.9 8.2 2.5-1.6 2.5-5.3 3.1-9.1 3.7-1.7 2.3-5.6 5.1-3.9 7.8 3.3 1.4 4.8-2.1 8.3-1.9-.3-1.7.7-2.1 1.1-3.2 5.2-.9 11.5-5.8 15-1 .4 1.6-.6 2-.2 3.6 1.7.2 1.9-.8 1.6-2.3 2.8-.5 4.4.4 6 1.3.3.4.7.7 1.3.9.2 0 .3-.1.5-.1.7.2 1.6.4 2.6.3 1.8 1.4 1.7 3.6 2.2 5.6.2-3.7.3-7.3 1.5-9.9 1.2-.1 2.4-.2 3.5-.2.9-1.6 3.6-1.6 3.7-3.8 1.8-.6 2.1 0 4.4-.3 3 2.4 8.8 1.1 12.9 0 2.4-3.6 6.1-6 4.9-12.8-.6-2.8-2.4-4.2-3.5-6.4-3 .3-3.7-2.1-7.2-1.3-.8-.4-.6-1.8-1.1-2.6-2.3-1-4.2-2.3-5.9-4 .4-1.2 1-2.1 1-3.9 2.1-.6 3.3-2.5 4.8-3.9h3.8c1.9.4 5.5 1.1 8.5 1.1-1.3 1.4 1.3.5 1.9 1.2-.1 1.1-.1 2.1.1 3.1-.6-.3-1.4-.3-1.1.7-.1-.2.7 0 1.3.2.2.8.5 1.6.8 2.3-1.1-.1-2.2-.4-3.2-.4.8 1.2 2.3 1.1 3.7 1.2.5.9 1.2 1.7 1.9 2.5-.4.5-1.2 1.1-1.8 2.4-.1 1.9 1.3-1.6 2.2-1.9.3.3.6.6.9.8h.3c3.1 2.4 6.8 1.8 8.5 5.9 1.8-2 4.9 1 6.6 2.4 1.6-2.3-.7-3.5-.2-5.4 1.8-.5 3.5 1.1 4 2.3.4-.9 1.9-3.6-.8-4.4 1.3-2.3 5.1.3 2.4 2.7.8.5 4.1.2 2.7 2.2 1.1.9 1-2.4 2.3-.7-1.8 3.4-1.5 8 1.8 9.1-.6 2.2-.7 4.9 0 7.6 3.9 2.9 3.9 6.3 10.8 6.2-.4 2.4 1.3 2.8 3.2 2.2.6-2.1-2.9-1.2-3.1-2.8 1.4-1.1 3.7-1 5-2.2 1-3.5 3.1-5.5 3.5-8.2-.6-1.7-1.4-3.1-2.4-4.5 0-.4 0-.8.4-1.3-.3-.2-.7 0-1 .4-.9-1.2-1.8-2.3-2.7-3.6-.6-.2-1.3-.3-1.8-.4.1-1.6.4-3.2 1-5 1.5 1.4 1.8 3.2 1 5.2 1.7 1.1 1.5 1.8 3.5 2 1-1.1.8-1.9-.7-2.4 3.5-.7 5.9 2.6 9.4 3.3 1.3-1.8 1.7-3.3 1.3-4.6 4.6-1.3 13.4 2.8 12.6-4.8-1.3-.8-3-1.4-3.2-2.5 1.5-3.8 5.9-3.6 9.7-3.1.3-.5.3-.8.2-1.2 2.9 1.1 7.7-1.4 6.7-5.3-1.4-1.2-2.7-1.8-4-1.8 1.1-1.7 2.1-3.8 2.7-6.4.1-.1.2-.1.3-.1 2.1.1 4.3.1 6.1-.2 0-.1-.1-.1-.2-.1.8.2 1.5.4 2.3.7.1.2.3.4.4.6 0 .1-.1.1-.1.1.2 1.1.9 1.7 1.6 1.9.9 1 1.9 1.8 3.1 2.6h-.2c1 .9 2.1 1.7 3.1 2.6-.5.6-.6 1.1-.7 1.7 4 3.5 7.9-.7 5.9-3.7.8-.6 1.5-1.4 2.2-2.2 0 .5 0 1 .1 1.4.6-.8 1.3-.7 2.1.2-1.3 2.8.2 3.5-2.8 5.2 2.1 1.5 2.5 3 1.3 4.8-1.4.7-3.1-1.2-4.6-.8-2.5 1.7-1 3.1-2.4 4.7.9.7 1.8 1.5 2.7 2.2 7.3-5.3 8.5 5.2 5 10.2-1.3-1.7-3.9 2.4-2.6 3.1 1.8-.2 3.2-3.4 5.2-1.7 1.9 1.5.5 3.2 2.1 4.7 3.6 1.2 4.6-1 7.8.5-3.3 2.9-1 5.3-1.3 7.9 4.3 5.5 7.9 2.5 11.7 3-.3-.4-.9-.7-.5-1.2 2.2.4-.2 3.2 1.8 2.3.2-.5 3.9-2.5 3.2-4.8 1.8-.8 3.7-1.4 5.7-.5 1 3.1 5.2 3.7 7.5 6.3h.6c0 .1 0 .2-.1.3.3.2.7.4 1 .6.1-.3.3-.5.4-.7 3.3.2 6.7.3 10 0 2.7-1.6 5.3-4.9 8.2-4.4.8-3.7 2.2-7.4 4.8-10.3-.9-1.7-1.2-3.5-1.3-5.2.6-1.1.1-2 .3-3-.1 0-.3-.1-.4-.1 0-1.4 0-2.8-.2-4.2-1.5.4-3.1-2.7-3.6-3.8 1.9-1.6 3.9-2.4 5.9-2.6 4.3 3.3 8.1 1.8 12 1.8 2.5 1.6 4.7 1.3 7 .9-1.2.7-2 1.9-2 3.2 0 2.1 1.9 3.9 4.3 3.9h.2c0 .1.1.2.2.2l.3-.3h.2c.1 0 .2.1.3.2.1-.1.2-.2.3-.4 1.7-.5 2.9-1.9 2.9-3.6 0-.4-.1-.7-.2-1.1.2.2.5.4.7.6.4-1.7 3.3.8 2.4-1-5.1-1.6-8-6.5-13.2-10.3 2.2-2.2.1-2.4-1.5-3.5.1-.8.4-1.7.9-2.6 0 .1.1.1.1.2.1-.3.4-.7.5-1 .9-1 2.1-1.8 3.3-1.6.2.2.3.4.5.5-1.6.7-2.7 2.1-2.7 3.8 0 2.4 2.2 4.3 4.8 4.3 2.2 0 4-1.3 4.6-3.1.2.8.6 1.6 1.3 2.3-.5.3-1.1.6-1.5 1.2.7 2.1 1.9 4 .8 6.5 2.1 1.3 2.9 2.9 3.7 4.5-1.2 0-2.4.1-3.5.8 1 .6.4 1.3.6 2 1.7-.4 3.5.9 5.2 1.2.3.4.6.7 1 1 3 .6 3.4-.1 6.3 1.8 3.5-1.5 8.1 0 11.4.1.5-1.5 1.3-1.7 2.4-.6.5-.9 1.2-1.9 1.9-2.2.3.1.6.2.9.2.1.1.1.2.2.4.1-.1.3-.2.4-.4h.2c2.5 0 4.6-1.8 4.7-4 1.8-1.7 3.4-3.7 4.2-6.8.7.4 1.4.4 2-1-2.4-2.3-3.9-2.5-5.3-4.4-.2.1-.4.2-.5.2-.3-.3-.6-.7-1-1 .9-.9 1.4-2 1.4-3.2 0-2.7-2.4-4.8-5.4-4.8-.7 0-1.3.1-1.9.3-1.1-.7-.9-1.7-2.6-2.2-.3 2-1.8-.6-2.2 1.4 1.1.7 1 1.7 2.6 2.2-.8.8-1.3 1.9-1.3 3.1 0 .2 0 .5.1.7h-.2c-.8-.1-1.5-.1-2.3-.1-1.1-1.4-.7-3.1-1.9-4.4-1.1-.1-1.8 1.6-3.4 0 .7-3.4 3.1.1 4-2.3.1-.7.1-1.4-.1-2.1-.4 0-1.1-.3-2-.7h13.8c.6.5 1.4.9 2.6 1.3.2-.4.5-.8.8-1.3h.4c.1.1.3.2.4.3l.3-.3h12.6c-.1.1-.2.2-.2.4-1 3.4 4.4 4.4 8.1 6.1.9.1 1.8.1 2.7.2-.1.2-.2.4-.2.6-1.3-.2-2.5-.1-3.9-1.3-.5.5-1 1.3-1.6 1-.5-.1-1-.2-1.6-.3-.9-1.7-2.9-2.9-5.2-2.9-1.2 0-2.3.3-3.2.8.1-.2.3-.5.4-.8-1.8-1.5-1.3-1.2-3.5-2.1-.5.8-1 1.7-1.5 2.5 1.7.5 1 1.7 2.6 2.2-.4.7-.7 1.5-.7 2.4v.2c-.1.1-.2.1-.2.3-.9 1.4.4 2.3 1.8 3.1-.1.6-.1 1.3-.1 2.2 1.6.7 3.2 1.4 4.7 2.1.6-1.1.9-2 1-2.9 2.5-.6 4.3-2.5 4.3-4.9v-.3c2.1.4 4.3 1.7 6.4 1.6.7 2.3 3 4 5.8 4 3.3 0 6-2.4 6-5.4 0-.7-.2-1.4-.5-2.1 1.7-.1 3.2-.3 4.3-.7h2.6c-.5.8-.9 1.8-.9 2.8 0 3.1 2.8 5.6 6.3 5.6 3.4 0 6.2-2.4 6.3-5.4.1.1.2.3.2.4l.9-1.5c-.1-.1-.2-.1-.3-.2h1.8c2 1.2 2.5 3 3.1 4.8.1-.3.2-.6.2-.8 1.1 1.8 3.3 2.9 5.7 2.9h.2c3.7 0 6.6-2.6 6.6-5.9 0-.2 0-.3-.1-.5 1.2-.1 2.5-.2 4.2-.1-.2.5 0 .9.9 1.1.3 2.9 3 5.2 6.3 5.2 3.5 0 6.3-2.5 6.3-5.6 0-.8-.2-1.5-.5-2.1l6.3.6c-.2.5-.3 1-.3 1.5 0 3 2.7 5.4 6 5.4 1.5 0 2.9-.5 4-1.4 1.3.3 2.6.5 3.8.2 2.7-.2 5.8 3.4 8.3.9-3.7-1.1-7.4-2-11-2.1.5-.6.8-1.3.9-2.1 1.8.3 3.6.5 5.8.1l.1-.1c.2.1.3.2.5.3.6 2.3 2.9 3.9 5.6 3.9 3.2 0 5.7-2.3 5.7-5.1 0-.8-.2-1.6-.6-2.2.2 0 .4.1.6.1.5.1.2.5.6.7.5.2 1.9 0 2.5.2 2.1.7 2.4 1.4 3.7 2 .4 2.3 2.6 4.1 5.4 4.1 2.9 0 5.2-2 5.4-4.5 1.2.1 2.4.1 3.7.1 1.5 1 2.9 1.4 4.1 1.3.8 1.7 2.6 2.8 4.8 2.8 2.8 0 5.1-2 5.1-4.6v-.4c.9 0 1.6-.1 2.9.1.4 1 3.7 1 5.3 1.6.6 1.7 2.4 3 4.6 3 1 0 2-.3 2.8-.8.5.8.8 1.8 1.1 2.7.4-1 0-2.1 2.5-2.8 3.7 0 5.5-.6 7.9-1.1.8 1 2.2 1.7 3.7 1.7 1.3 0 2.4-.5 3.3-1.2.4.1 1 .2 2 .1.4-.8-1.1-.9-.6-1.8 2.1-1.2 5.4-1.3 9-1 .1 2 1.9 3.6 4.2 3.6 2 0 3.6-1.2 4.1-2.8l3.9.3c.6.5 2.1.7 1.9 1.5 5-.2 7.4 1.4 11.9.7 2.2-1.4-3.7-2.6-6.3-3.7-4.4-.1-8.7-.3-11.5-1-.1-.3-.3-.6-.5-.8 2.8-.6 6.7-.8 10.1-1.2 1 .6 3.4.2 5 .4 1 .2.9.6 1.9.9 2.1.6 5.3.5 6.9.9.6.1 1.4.6 2.5.9 1 .3 2.8.4 3.8.7.5.1.2.5.6.7.5.2 1.9 0 2.5.2 2.4.8 2.4 1.6 4.4 2.2 2-.1 2.6.4 5 .2-.4-2.1-6.2-2.4-8.7-3.7-1.5-1.3-4.7-2.6-3.7-4.1 4.9-.6 8.1-1.8 11.2-3 .1 1.9 1 3.1 1.2 4.9 1.4.2 2.2 2.1 3.7 2.6 4 1.3 9.4-.5 10-4.7.6-1.4.6-2.8.4-4.1 2.8 0 5.5 0 8-.3h15.8c0 .4.1 1 0 1.5-6.3.6-13.7-1.3-20.2 0 .4.2.9.3 1.4.4l-.3.3c-.1 1.1 1.5.8 1 2.4 1.7.5 2.1-.5 3.5-.4.1-.5 0-.9-.2-1.3 6.8 1.2 16.3 1.5 26.5 1.5 3.1.8 11.6 2 13.1.2-2-1.6-9.6-1.3-15-1.7-1.5-.6-4-.9-6.4-1.2.2-1.2-.8-1.3-1.7-1.5h4.3c.2.7 1.3 1.1 3.2 1.2.9 1.1 2.3 1.7 3.9 1 0-.7.1-1.5.1-2.2h13.9c.1.6.6 1 .4 1.8.5-.3 1-.6 1.8-.5 0-.4.1-.9.1-1.3h4c0 .3 0 .7-.1 1 2 .5 2.8 1.6 1.5 3.5.5.1.6-.2.6-.5.8-.9 2.3 0 3.4 1.3.6 1.7.7-.9.1-1.2 3.2-1.6 3.8 3.9 7.3 3.9-.5-2.4 1.3-2.2 1.4-4h.2c.2.1.5.1.8.1.6.4.5 1.4 1.8 1.2 0-.8.1-1.5.1-2.3-.7-1.2-2.8 1.2-2.2-1.9-2 0-3.2-.5-4.3-1.2h12.5c.4 1 .7 2.2.9 3.4 1.7.1 3.5.2 5.2.3.7-2 1.8-3.2 3.2-3.7h5.8c3.8.8 8.1 2.7 11.8 3.1 1.1 1.9 4.3 2 6.8 2.7 0 1-.8 1.2-.7 2.3 1.1.1.8-1.5 2.4-1 4.3 5.7 13.2 7.9 21.5 6.9h.2c.3.2.6.5 1 .7-.1-.3-.2-.6-.2-.9 1.4-.4 2.7-1.1 4.2-.6 2.4-2.3 5-4.3 6.7-7.3.3.2.6.3.5.7-.1 1.2-.4 2.5.4 3.1l.1-.1c-.2 4.3 3 5.6 5.9 7.2 5.7-.2 10.8-4.7 7.5-11.1-3.4-3-9.9-2.2-12.4 1.3-.2-.9-.6-1.9-1.1-3 .5-1.1.8-2.4 1-3.9h32.1c.8 1.1 1.7 2.1 2.8 3 1.6.1 2-1.4 1.9-3h7.6c.1.4.2.9.2 1.4.5 1.9-1.2 1.6-1.3 3-.5 2 2.4 3 .8 4.5.2.7-3 .5-2.7-.2-1.3 1-1.3 3.1-1.9 4.7 2.9 4.1 6.2 7.9 9.5 11.6 3.9 2.5 10.9 2.7 14.2 5.7-.3 2.5-3.2 2.6-3.5 5.1 1.5 2 2.7 4.2 7.3 4 .1 2.7-1.2 3.9-.4 6.2 4.2 2 9.2.9 10.9-2 2 .9 1.5 3.7 3.5 4.6-1.8 2.1-3.1 5.6-1.6 8.3 3 .4 4.1.8 7 .4.6-1.3 1.8-2 2.4-3.4-2-4.3-7-6.4-9-10.7.1-1.3.2-2.6.2-4 4.2-1.7 8.1.9 12.8 2.1 2.2 1.9 5 5.1 10 3.7.8-1.9-.1-3.1-.8-4.9 1-2.3 4.7-2.1 7.7-2.6 1.5.6 1.8 2.1 2.5 3.2 2 1.3 4.5-.3 7.5.5 6 3.1 12.6 5.7 13.8 12.3 3.8-.2 4 4 7.9 2.3.6-3.2-2.7-3.7-2.3-6.8-3.3.3-3.4-1.7-5.8-2.1-1.2-1.9-3.1-3.4-4-5.5.6-6.7 3.8-8.9.9-14.5 0-.7.1-1.5.1-2.2 1.2-1.6 2.5-3.7 3.6-5.6 2.5.5 4.7.4 6.6-1.8.4.2.3.4.5.6 1.3-1 1.6-2.1 1.3-3-.4-1-.1-.7-.8-1.5-.2-.2.4-.8.2-1-1.4-2.3-5.3-3.1-8.4-3.6.2-1 .5-1.9.9-2.9.5.1.9.1 1-.6-.2-.2-.4-.2-.6-.3.9-1.8 2.1-3.5 3.3-5.1h16.6c1.5 1.4 3.4 2.9 5.7 3.5 1.8.4 3.2-.8 4.6-.3.9.8.6 1.8 1.5 2.5.8.1 1.3-.8 2.4.1-.4 1.8-2.2-.2-2.8 1.2-.1.4-.1.8.1 1.1.7.1 3.1 1.1 4.7 1.6.4-.5.8-1.1 1.2-1.6-1.7-1.3-2.4-2.7-1.6-4.4.7-.7 2.2.5 2.6-.9.9.4 3-.3 4.5-.7 1.7.5 3.2.6 4.3-.5-.3-.5-.6-1.1-.8-1.6h20.1V310c3.7.6 9.3-.8 10.1-3.6ZM806.6 416.7c-.3.2-.5.4-.7.6.2-.6.4-.6.7-.6ZM269.5 164.6c.2 0 .3-.1.5-.1.2.1.3.2.5.3-.3 0-.6-.1-.8-.1-.1-.1-.1-.1-.2-.1Zm847.1 247.1h1.6l-.2.2c-.5-.1-.9-.1-1.4-.2Zm-872.9.7c-.4-.3-.8-.5-1.2-.7h3.3c-.7.3-1.4.5-2.1.7Zm-92.5 1.9c.5-.5 1.1-1 1.8-1.3.4.9.8 1.7 1.3 2.4-1.1-.3-2.1-.6-3.1-1.1Zm1287.9-14.7c-.4-.1-1.1 0-1.1-.4.5.1 1.1 0 1.1.4Zm1.2-.3c.3.1.7.1.7.4-.3-.1-.7-.1-.7-.4Z"/>
    <path d="M951.9 107.8c-1-.3-2-.9-2.3.4.4.2.8.3 1.2.5.2-.6.8-.5 1.1-.9m9.5-9.2c-.8-.2-1.5-.4-1.7.7.7.2 1.7.8 2 .2-.3-.3-.6-.5-.3-.9m21.7-13.5c-4.8-2.1-8.3 2.6-6.3 7.1 1.8.5 2.7 1.5 3.7 2.3 4.8.3 6.5-6.7 2.6-9.4m10.8-6.3c-1-.3-2-1-2.3.4.4.2.8.3 1.2.5.2-.6.8-.5 1.1-.9m-10.3 36.3c-1.5-.6-1 1.9-.2 2 .4-.7 1.1-.5 1.4-1.5-.4-.2-.8-.4-1.2-.5m19.9-50.9c-.2.4-.4.7-.7 1.1.4.2.7.4 1.1.7.2-.4.4-.7.7-1.1-.3-.3-.7-.5-1.1-.7M960.8 57c1.4.8 1.2-1.8.4-2-.5.7-1.2.3-1.5 1.3.3.2.7.4 1.1.7m-18.9 15.3c-1.5-1.1-2.6-.9-3.6-.2.5.5.6 1 .1 1.7 1.6 1.2 2.8.7 3.9-.2-.6-.3-1.1-.7-.4-1.3m18.7-30.5c-.4-.2-.7-.4-1.1-.7-.2.4-.4.7-.7 1.1.4.2.7.4 1.1.7.3-.3.5-.7.7-1.1m-32.2-1.1c-.3.6-.7 1.1-1 1.7.6.3 1.1.7 1.7 1 .3-.6.7-1.1 1-1.7-.6-.3-1.1-.7-1.7-1m-17.2 1.4c-1.8 1.1 1.5 3.1 1.7 1-.6-.4-1.2-.7-1.7-1M828 43.9c-1-1.8-3.3 0-2.1 1 .6-.8 1.7.4 2.1-1m-49.8 34.2c-1.8 1.1 1.5 3.1 1.7 1-.6-.4-1.2-.7-1.7-1M770.3 89c.3-.7 1-1.5.4-2-.6.8-1.7-.4-2.1 1 .5.4 1.1.7 1.7 1m-3.1-5.3c-1.1-.5-.9-1.4-1.9-1.9-.3.6-.7 1.1-1 1.7 1.2.9 2.2 1.1 2.9.2m8.3-23.3c.6.3 1.1.7 1.7 1 .2-.4.4-.7.7-1.1.2-.4.3-.7-.2-.9-.5.6-.8 0-1.1-.7-.4.6-.8 1.1-1.1 1.7m-14.3 12.9c-1.3-1-2.3-1.2-3 .3.6.6.6 1.4 1.8 1.9.4-.7.8-1.4 1.2-2.2m-728 31.1c-1.2-.8-1.8-2.3-4.2-1.7-1 2.5-1.8 6.5 2.6 5.8.1-2 1.8-2 1.6-4.1m-17.8 26.3v-1.3h-1.3v1.3h1.3m2.7-9.3c-.5-1.2-.7.4-.6 1.3.4 1.2.6-.4.6-1.3m133.2-65.9c-.4 2.1.4 3 1.2 4 2.3.4 1.6-2.2 1.7-4h-2.9m37.9 41.3c.5 1.5 2.9 2.4 4 1.2-.1-1.2-.3-2.1-1-2.5-1.4-.1-.9 2.1-3 1.3m19.4-3c2.4-1.9-1.9-2.2 0 0M17.2 97.6c-1.3-.3-2 2.2-3 3 2.1 0 1.7-1.4 3-3m171-12.1c.6-3.6-4.4-6.6-6.9-9 2.6 2.7 3.4 7.2 6.9 9m-141-29.8c-2-1.2-3.3 3-2.8 3.8 1.7-.1 3.2-2.2 2.8-3.8m31.6 49.4c0 .6.8.5 1.3.6 0 .6-.8.5-1.3.6.1.8 1.2.5 1.9.6V105c-.6.1-1.3.1-1.9.1M30.7 46.6c-1.3-.1-2.5-.1-3.2.6.3.5.6 1 0 1.1 0 .1.1.2.1.2-.1.1-.3.2-.4.3.9 1.3 1.9.7 2.9 0 .5-.1 1-.3 1.1-.5-.2-.5-.5-1-.5-1.7m46 10.5c-1.4-.4-.9 1.2-1.9 1.3.1.8 1.2.5 1.9.6v-1.9m17.9-.6c2.6-.5 2.2-6.6-1.2-6-.5 3 .5 4.3 1.2 6m7.9-3.9c-2.2-.4-2.3 2.1-1.3 3 2.8-.2 1.2-1.1 1.3-3m29.1-4.1c-1.3 2.7 1.2 5.6 3.6 6 .4-3.8-.8-5.8-3.6-6m20.8-7.4c-.2-.8-1.3-.7-1.3 0 .3.9.6-.1 1.3 0m-8.9-1.7c.2 1.1 1.1 1.5 2.6 1.3-.5-.9-1.4-1.2-2.6-1.3m98.7 24.8c.4-2.6-3.1-1.1-3.7-2.6-1 .7 1.1 3.6 3.7 2.6M19 50.7c-2.3 2.7-5.1 4.8-6.7 8.2 0 2.8 1.7 5.1 2.2 8.8 1.1 1.4 3.3 1.7 4.5 2.9-.4 1.5-3.6.1-3.4 2.4 1.7.9 3.4.7 3.4-1.8 6.6 1.1 7.1-2.4 11.2-4.7 3.1-8.7-.3-17.1-11.2-15.8m31.2 36.8c1.8.1 2.4-2.2 3.6-3.3-1.9-5.4 2-10.4 2.5-15.7-4 2.8-2.7 9.3-8 13.3 1.1 2 0 3.8 1.9 5.7m283.2-46c-1.4.6-1 2.3-1.2 3.5 4.5 2.1 5.7-2.8 1.2-3.5m474 21.9c-.6 2.2.6 3.9 3.1 5.1 1.1-2.3 2.7-1.4 2.8-3.8-1.1-2.3-4.6-2.8-5.9-1.3m1.1 19.6c3.2-6-5.2-7.1-7.3-3-.4 3.8 5.3 6.3 7.3 3m-31-16.1c1.9 1.7 3.7-1.5 1.3-2.3-.4.8-.9 1.6-1.3 2.3m28.2 22.5c-.4-.2-.8-.4-1.1-.6-.3.6-.6 1.1-1 1.7.6.3 1.1.6 1.7 1 .2-.4.4-.7.6-1.1-.5-.3-.4-.7-.2-1m-11.9 1.4c.2-.5.5-.4.9-.2.8-1-2.1-2.3-2-.4.3.2.7.4 1.1.6m-40.9-30.3c-.7 1.8-1.2 2.4.7 4 .6-.3 1.2-.9 1.7-2-.3-.8-1.3-1.4-2.4-2m1.6 23.7c-.2.4-.4.7-.6 1.1.4.2.7.4 1.1.6.2-.4.4-.7.6-1.1-.3-.2-.7-.4-1.1-.6m-97.3-52.7c-2.1-2.2-4.5.9-1.8 1.9.5-1.1 1.4-.8 1.8-1.9m127.5 76.7c.5.2.4.5.2.9.7.2 1-.9 1.8-.5.3-.7-.8-1.1-1.4-1.5-.2.3-.4.7-.6 1.1m30.4 20.5c-.7.8 0 1.3-.4 2 .4.2.8.4 1.1.6.3-.6.6-1.1.9-1.7-.5-.2-1-.6-1.6-.9m-34.8-13.6c-.5 2.4 1.3 2.7 3.2 3.5-.3-1.1 1-2.7.6-3.8-.6-.4-1.2-.8-1.9-1.2-.7-.2-1 1.9-1.9 1.5m-15.7-8.2c-.9 2.7.3 4.8 1.1 7.1 2.9 1.7 5.7 2.6 7.4-.1 1.4-3.5-6-8.7-8.5-7m43.6 38.4c-1.4-1.3-2.4-.9-3 1 .6.4 1.3.8 1.9 1.3.4-.8.8-1.6 1.1-2.3M665.7 53.2c-.8-.1-1.6.1-2.1 1.1 1.7 1.5 2.5.1 2.1-1.1m95.9 59.6c-.4-.2-.7-.4-1.1-.6-.2.4-.4.8-.6 1.1.4.2.7.4 1.1.6.2-.4.4-.7.6-1.1m31.6 26.5c2.9 2.3 4.7.7 6.8.6.7-2.6-1.2-4.7-4.1-5.3-1.6 1.8-2.6 3.2-2.7 4.7m-106-66.4c-2.2-.9-3.8-.2-3.9 1.8 2.1 2 4.3 0 3.9-1.8m96 57.6c-.9-1.9-3.9-.7-5 1.4 2.1 1.3 5.2.4 5-1.4M664 81.2c.9-1.2-1.5-1.5-1-2.5-.9-.7-1.1 1.6-1.7 2.1 1.2 1.3 1.9.6 2.7.4m15.3-9.7c-1 1.3-1.2 2.4.4 3 .4-.7.8-1.4 1.3-2.1-.6-.3-1.2-.6-1.7-.9m49.1 30.6c.1-.5-.2-.9.1-1.4-.4-.2-.8-.4-1.1-.6-1 .9.2 1.4 1 2m39.9 24.4c-.3.4.4.7.8 1 .4.6-.9 1.4-.4 2.8.9.4 1.8.8 2.7 1.3 1.1-1.5 1.1-2.8.5-3.9-1 .1-2.3-.5-3.6-1.2M686.1 81c.8-1.7-2.3-3.4-2.9-1 .5 1.9 1.7 1 2.9 1m-47.3-28.5c-.7 1-1.9 1.5-1.5 2.9.6.4 1.2.7 1.7 1.1 1.6-1.1 1.8-2.9-.2-4m148.8 85.4c-.8-.6-1.2 0-2-.3-1.2 1.8 1.1 4.2 2.6 4 .2-.7-.2-1.8-.8-1.1-.5-.7-.3-1.6.2-2.6m-62.4-34.8c-2.2-3.5-5.9-.4-8 1.4 3 1.3 7.7 1.9 8-1.4m-28.4-15.6c-.9.3-1.8 2-1.5 3.1 1.1 1.2 1.5 0 2.5.9.5-1.5 1-3.1-1-4m49.6 75c2.3-2.5-1-4.2-2.2-1.8.4.7 1 1.4 2.2 1.8M631.6 55.1c.6.3 1.1.6 1.7 1 .2-.4.4-.8.6-1.1-.6-.3-1.1-.6-1.7-1-.2.4-.4.7-.6 1.1m161.5 95.3c.7-2-1.8-4.4-2.9-1 1.2.9 2.1 1.1 2.9 1M648 70.5c2.1-1.4 1.4-3.7-1.5-5-.1 1.9-1 3.9 1.5 5m59.2 31.3c-1.4.1-3.2-1.2-4.6-1.3-1.9 1.9-2.3 3.2-2.3 5.5 3.1 3 4.7.6 7 .6-.3-1.5-.5-3-.1-4.8m80-29.2c.4 3 4.7 2.3 6-.5-1.8-3.4-4-.3-6 .5m-3.9 74.8c-.3.6.4.8.8 1.2.3-.5-.4-.8-.8-1.2m-89.7-48.9c-1.3 1-2.2 1.4-2.4 3.1 2.9 2.9 6-1.7 2.4-3.1m20.4 13.4c.2-.4.4-.7.6-1.1-.4-.2-.7-.4-1.1-.6-.2.4-.4.8-.6 1.1.3.2.7.4 1.1.6m-30.1-17.4c-.7.4-1.2 1-1.7 2.3.8.5.6 1.3 1.5 1.7 1.3-.4 1-1.8 1.5-3.1-.4-.3-.8-.6-1.3-.9m84.9 53.7c1.7 1.1 2.5-.5 3.4-1.9-1.3-1-1.8 0-3-.8-.8 1.1-1.5 2.1-.4 2.7m26.3 13.6c-.8-.4-1.5-.8-2.2-1.3-1 1.4.4 2.1 1.3 3 .2-.5.5-1.1.9-1.7m-108.8-59.3c-.5 1.4 2.9 2.6 2.9.2-1.4-1.7-1.9.1-2.9-.2m24.6 14c1.2 1.9.4 3-1.6 3 .3 2 2.7 2.2 4.3 3-.9 1.7-1.1 3.4-1.5 5.1.7.6 1.4 1.2 2.1 1.9 3.7-3.2 1.7-5.9.4-8.7-.1.2-.2.3-.3.5-.7-1.7-2-3.2-3.4-4.8m74.3 41.9c-1.1 0-2.4-.8-3 1.3 1.2 0 2.5.8 3-1.3M755 142.6c-.6.9-1.1 1.8-1.7 2.8-.3 1.4 4.2 1.5 2.7 3.2.7 0 1.2-.8 2.1-.1.8-1.5.1-2.6 1.3-4.2-1.6-.8-3.3-2-4.4-1.7m11.2 8.4c-1.2-1.4-1.6.9-2.9-.5-.6 1.5 1 2.2 2.3 3 .8-1 .4-1.6.6-2.5m-22-43.4c-.3-.8-1-1.6-2.2-2.1-1.4 1.8-.8 3 .6 4 .7-.2 1.2-.9 1.6-1.9m26 48.5c-1.4-.7-2.9-1.8-4-1.5 1.4 1.2 1.1 2.8 2.5 3.9.6-.8 1-1.6 1.5-2.4m-174-88.7c-3.1.8.2-2.8-.3-4-1.3-.8-1.9.8-3.2.1-.5-.8.2-1.9.4-3-3.4 2.2-9.9 7.3-5.4 10.9.4-1.1 1-1.1 1.5-1.7.5 1.2 2.7 1.9 1 3.8 3.2-.3 4.5-3.8 6-6.1m137 83.3c3 2.4 5.3-1 6-2.1-.1-1.9-3.5-2.3-4.5-1.9-.1 1.5-.8 1.7-1.5 4m-6.7-11.2c2-.8 2.6-4.1 0-5-1.4 2.1-1.9 3.9 0 5m-69.9-76.7c-.4-.2-.8-.4-1.1-.6-.2.4-.4.8-.6 1.1.4.2.7.4 1.1.6.2-.4.4-.7.6-1.1m-4.1 2.2c.7-2.7-3.5.7-.6 1.1.4-.4.1-.7-.2-.9.1-.5.5-.4.8-.2m-58.9 11.5c-2.6 1.3-3.8 5.1-3.2 6.9 2.9.8 5.3-4.4 4.8-6.1-.6-.2-1.1-.5-1.6-.8m20.3 11c-.6.3-.8 1.1-.6 1.9 1 .5 1.6-.6 1.5-1.6.6.2 1.2.4 1.1 1.5.7-.3 2.3.4 2.3-.7-1.5-1.9-2.1-1.8-4.8-2 0 .4.3.7.5.9m40-19.5c.5.2.4.5.2.9.7.3 1.1-.8 1.5-1.4-.8-.7-1.3-.2-1.7.5m-83.7-4.1c-1.5-1.2-3.3.8-3 2.6 1.3.2 2.2-1.2 3-2.6m70.6 2.5c-.8 1 2.1 2.3 2 .4-.8-.7-1.2-.1-2-.4m-73.5 3.1c1 .9 1.7.5 2.6.7 0-.6-.1-1.2.4-2-1.5-1-2.2.4-3 1.3M723.4 83c1.6.8.6 1.6 2.2 1.3 1.7-2-1.4-3.8-2.2-1.3m-137.1 1.8c1.4 1.6 2.3.5 3-1.5-1.6-1.7-3.3 0-3 1.5m58.6-13.3c-1.1-1-1.4.6-2.3.2-.5 1.5 2.4 1.8 2.3-.2m22.2 57.2c-.6-.3-1.1-.6-1.7-1-.3.6-.6 1.1-1 1.7.6.3 1.1.6 1.7 1 .3-.6.7-1.2 1-1.7m-14.6-49.3c-2.6-1.1-1.3 3.6 0 0m-3.4-1c-1.2-.8-2.1-.6-2.6.7.6.3 1.1.6 1.7 1 .2-.6.6-1.1.9-1.7m-38.9 20.7c-.9-.8-1.5-.4-2.3-.6-1.1 1.4-.8 2.4.9 3 .5-.8 1-1.6 1.4-2.4m24.7 20.9c.5.2.4.5.2.9.7.3 1.1-.8 1.5-1.4-.8-.7-1.3-.2-1.7.5m28.3-26.4c-.6-6.4-8.5-6.2-12-2.1.7 2.2-.4 4.8 1.5 6.6 4.8 3.1 8.2 1.1 10.5-4.5M557.3 82.3c-3 .6.7 2.9 0 0"/>
    <path d="M552.3 81.6c-.5.9-1.3.7-1.7 1.7-1.1 1.7.9 2.6 1.2 3.9 4.8 2.1 6.7-6.1.5-5.6m28.5 17.9c-1.4.5-2.7 3.4-.2 4 .5-1 1.1-2.1 1.6-3.1-.4-.3-.9-.6-1.4-.9m24.9 19.9c-1.2-1.8-3.1 1.6-1 1.7.4-.5.7-1.1 1-1.7m-10.1 1.4c-.9-.7-2.8 2.6-.7 2.6.9-1.1.4-1.7.7-2.6m47.6-21.3c-2.5.6-3.1-2.5-5 0 2.6.9 2.5 1.3 4.6 2 0-.6 0-1.2.4-2m-20 48.2c-1.9-3.1-5.9-2.3-8-1.1.8 3.2 6.5 4.1 8 1.1m8.7 11.7c-1.1 1.3-.4 2.1-.7 3.2 6.7 4.2 6.5-7.2.7-3.2M521.2 98.2c-1.4-1-2.1.4-3 1.3 1 .6 1.6 0 2.6.7 0-.6 0-1.2.4-2m96.4-20.5c-.6 1.5 2.3 1.9 2.3-.2-1-1-1.4.6-2.3.2m-122.7 2.8c-.7.4-1.2 1-1.7 2.3 1.8 1.3 2.9.6 3-1.5-.4-.2-.8-.5-1.3-.8m320.8 77c.2 1.4-1 3.1 1.2 4 .3-.5.6-1 1-1.5-2.6-.3-.2-2-2.2-2.5m-40.6-21.8c-2 .2-4.4 1.1-5.9-1.2.9 1.7.3 3.7 2.8 5 2.4-.7 3.7-1.4 3.1-3.8m21.5 18.9c-1.1-.5-.7 2.1-1 2.8 1.1.4 1.8-.2 2.4-1.5-.9-.3-1.7-.7-1.4-1.3m-11.4-5.5c-.9-1.5-2.9.3-2.3-1.3-1.9-.2 1.1 4.7 2.3 1.3m-100.4-42.5c-1.2 1.3-.1 1.9-.4 3 1.5-.2 2.7 0 2.8-2.1-.9-.9-1.7-1-2.4-.9M561.2 42.2c.4-1-2.6-1.2-3 .4 1.2.5 1.9-.9 3-.4m181.3 104.3c-.7 1.8-1.8 2.4-3.2 1.9-.4 2.1 3.7.5 5-.5-.3-.5-.9-1-1.8-1.4m-95.9-85.4c.5.2.4.5.2.9.9.3 1.1-1.6 2.1-1.1.2-1-.8-.2-1.7-1-.2.5-.4.9-.6 1.2m-1.5-1.1c.7-.8-1.9-1.1-2.3-.7-.2.4-.4.7-.6 1.1 1.4 1.5 1.8-.8 2.9-.4m69.5 25.2c0 1.1.9.3 1.9 1.8 1.3-2.4-.5-2-1.9-1.8m15.6 41.2c1.1 2.2 2.3 4.4 4.5 6.3.8.4 1.7.9 2.5 1.3 1.8.3 3.8 1 5.7 1.5 2.4-1.3 6.8-3.4 7.1-6.4 1 1.6 1.6 1.2 3.2.9.2-1.2-1.2-2.1-2.3-1.6-.7-.3.5-1.1.6-1.7-.9-1.5.1-3.5-1.7-4.8-.1-1.7-1.2-3.2-3.6-4.3-2.4-.5-4.8-.8-7.2-1.1-1.7.7-3.6 1.1-5 2.8-.6 1.1-1.3 2.2-1.9 3.3-1 .9-.2 3.7-1.9 3.8zm13.6-6.9c.2.2.6.3.4.6-.2-.1-.6-.3-.4-.6zM579 156.9c-.9.8-2-1.2-2.8.7.5.6.1 1.2 1 1.7.5 0 2.8-1.3 1.8-2.4m20.5-24c.3 1.5-1.2 3.2.9 4.6 1.4-.6 2.8-.9 4.1-2.9-.5-.4-.7-.8-.7-1.2.2.3.5.5.9.7.8-1 .4-1.6.7-2.4-.8-.4-1.5.1-1.7.8-1.6-.8-2.9-.7-4.2.4m-10.3-22.6c-1.2-1.8-2 1-3 .7.5.4.9.8 1.4 1.2.6-.5 1.1-1.2 1.6-1.9m89 45c-2-2 1.4-1.8-.8-3.8-1.5 2.4-2.7 4.8-2 7 1-1 1.9-2.1 2.8-3.2m-.2 4c1.1-2.5-2.2 1.5 0 0M567.1 40.6l.4-.5c4.6-.7-3.1-1.1-.4.5m73.1 49.9c-1.5 2-2.9 2.6-2.9 5 2-.7 3.3-2.6 2.9-5m35 34.6c.5.6-.2.8-.8 1l1.5 1.2 1.2-1.5c-.3-.3-.7-.6-1-.8-.3-.2-.6-.4-.9.1m27.1 9.4c.8-1.4 2.5-2.8 1-4-1.2 1.4-2.6 2.9-1 4m-37.6-36.7c-.7.1-3.3 1.4-1.2 2.4.5-.8 1.7-1.6 1.2-2.4m-28.5-28.4c-.1-1.3-2-2.2-3.1-1.7 1 .9-1.4 2-1.9 2.1.8.6 1.5 1.2 2.3 1.8.9-1.6 1.9-.7 2.7-2.2m2.1 3c.7-1.4-1.9 1.3-.7.9-.1.1-.2.3-.3.4 1-.4 2.5 1.6 3-1-.9-.8-1.5-.7-2-.3m91.2 61.1c-.7.9-1.4 1.4-2.2 1.5 1.7.7.7 1.7 2.1 2.5 1.2-1.4.8-2.7.1-4m-40-32c1.9-1.4 1.4-2.7 1.4-4-1.3 1.4-3.7 2.9-1.4 4m9.9-10.7c3.8-.8-2.4-3.1 0 0m84.8 63.9c-1-.7-1.9-1.1-2.8-.7 1 .7.6 1.5 1.6 2.2.3-.5.7-1 1.2-1.5m-99.7-89c-.7-.8-3.6 2.4-1.5 2.9.6-.1 3.6-1.9 1.5-2.9m-18.4-13.2c1-1.4 1.8-2.8.4-4-1.1.2-2.3.5-3.3 2.3 1 1 2 1.8 2.9 1.7m68.1 52.2c.7.6 1.5 1.2 2.2 1.8 2.3-1.6-.8-4.6-2.2-1.8M665 47.5c.4.3.9.7 1.3 1 1-.1 1.9-1.4 2.9-2.4-.7-.5-1.4-1.1-2.1-1.6-.9 1.4-2 .8-2.9 2.4.2.2.4.3.6.5.1.1.2.1.2.1m46.1 31c-1.9 1.3-.4 3.1 1.1 3 .4-.4.7-.8 1.1-1.3-.8-.5-1.5-1.1-2.2-1.7m-43.2-36.3c.4-.3.9-.2 1.4.3 1.1-1.1.5-2 .2-3-1.1 1-2.8 1.2-1.6 2.7m41.2 29.5c-.6.7-1.1 1.3-1.7 2 1.6 2 4-.8 1.7-2M677 40.3c1.1-2.5-2.2 1.5 0 0m63.8 45.8c.3.3.7.6 1 .8.3-.3.6-.7.8-1-.3-.3-.7-.6-1-.8-.2.4-.5.7-.8 1m9.5-12.6c-1.8 2.7-4.2-.8-6 1 .7 4.4 6 6.8 9.7 8 .3-.5.5-.9.6-1.4.2-.1.4-.2.7-.1.1-.6-.2-.8-.6-.9 0-2.3-2.1-4.4-4.4-6.6m72.2 65.1c-.4-2.9-3.1.6 0 0m-38.2-33.5c-.4 1.1 1.4 3.2 2.7 2-.5-.6.3-1.3.2-1.9-1-.4-2-1.2-2.9-.1m-7.9-8.6c-.7.8-1.4 1.3-2.1 1.4.9.3 2.1 2.4 2.9 1.4-.9-.9 1.1-2-.8-2.8m-7.6-10.4c.3.3.7.6 1 .8.3-.3.6-.7.8-1-.3-.3-.7-.6-1-.8-.2.4-.5.7-.8 1m0-3.6c-2.2-.8 1.8-2.1-1.2-2.9-2.1.9-.3 3.4 1.2 2.9m-2.1-4.1c-.6-.4-1.3-1.3-1.9-.7.6.4 1.3 1.2 1.9.7m-1.2-2.9c2-1-.8-3.5-2.2-2.9-.2 1.1.4 2.1 2.2 2.9m87.6 61.8c-1.9-1.5-1.8-.3-2.6 1.2.7.4 1.3 1.3 1.9.7-.6-.5 0-1.2.7-1.9M767 60.5c1.5-1.6 1.6-.9 2.3-2.7-1.6-.7-.6-1.6-1.9-2.3-1.1.1-2.1 1.6-3.1 2.8.9.7 1.8 1.5 2.7 2.2m93.5 72.6c4.6-.7-3.1-1.1-.4.5 0 0 .3-.5.4-.5m37.6 29.7c-1.6-.7-1.7-.7-2.6-2.2-5.1.4-11.1-8.7-16.3-8.1 3.6 3.4 9.3 6.6 11.5 10.1 1.1.2 6.2 5.7 8.5 3.2-1-.9-2.2-1.8-1.1-3m-65.9-68.9c-.6-.5-1.3-.9-2-1.4-1.5 1.1-1.4 2.1.3 3 .7-.5 1.2-1.1 1.7-1.6m35 10.6c-5.1-4.6-9.7-10.6-15-8.5 3 3.8 9.1 9.3 13.3 11.6 1.4-1.2.9-2.1 1.7-3.1m-54.8-61.1c2.5-1.8-1.4-3.9-2.2-2.1.8.7 1.5 1.4 2.2 2.1m82.8 58.7c-1.4-1.5-1.2.3.1.8 1.8 1.5 3.6 3.1 5.4 4.6.8-1.1.7-2.2-.3-3.1-1-1.1-1.7 1.4-2.7-.1-.8-.8-1.7-1.5-2.5-2.2m-44.7-51.9c-3.3-2.9-8.3-3.2-11.8-4l.2.2c-.4-.1-.8-.1-1.2-.1h-.4c.3-.2.7-.3 1-.4-1.1-.8-2.2-1.6-3.1-.8h-.9c.1 0 .1 0 .2-.1-.4-.2-.9-.7-1.3-.3.3.1.6.4.8.4-3 .3-1.6 1.6.4 2.1h.1c-1.3.8-2.1 2.1-2.1 3.6 0 2.5 2.3 4.5 5.2 4.5 2.9 0 5.2-2 5.2-4.5 0-1.1-.4-2-1.1-2.8.7.1 1.4.1 2.1.2 2.3 1.6 4.7 4.1 6.9 4.1.7 1.9 2.7 3.2 5.1 3.2 3 0 5.4-2.1 5.4-4.7s-2.4-4.7-5.4-4.7c-2.7 0-5 1.8-5.3 4.1m39.1 12.4c-1.3-.8-3.9-3.2-6-1.4-1.3.9-.3 1.6-1.3 2.4 1.1 2.5 3 3 4.8 2.6-.1.3-.1.5-.1.8 0 2 1.9 3.6 4.1 3.6 2.2 0 4.1-1.6 4.1-3.6s-1.9-3.6-4.1-3.6c-.5 0-1 .1-1.5.3.1-.3.2-.5.1-.7l.1-.1c-.1-.2-.1-.3-.2-.3m-12.4-17.2c2.1 1.3 4.1 1.4 6 .7-.1-1.3-1.3-2.4-2.3-3.6-1.5 1.4-3.2.7-3.7 2.9m54 11.8c-.7-1.8-1.6-2.1-3-.6.5.6.1 1.2.9 1.7.7-.4 1.4-.5 2.1-1.1m39 63.6c-1.2-2.1-4.4-3.4-4-.5 1.4-.4 2.9 2.5 4 .5m-4.4 19.7c-.8 1-1.7.6-2.5 1.2 0 1 1.3 1.9 2.3 2.8 2-1.1 2.4-2.2.2-4m25.4-94.2c.5.7.3 1.5 1.5 2.2.5-.7 1-1.3 1.5-2-1.1-1.8-2-.5-3-.2m25.7 2.4c-.5.7-1.1.9-1.6 1.1.6.6 1.2 1.1 1.8 1.7l1.2-1.5c-.5-.5-1-.9-1.4-1.3m-40.7 34.1c.6.6 1.3 1.8 1.9 1.3-.2-.3-.4-.6 0-.9.4.2.8.8 1.1.4-1-1.4-2-2.5-3-.8m55-4c-.8-1.9-1.7-1.3-3.4-2.9-7 3-13-3.3-20.6-2.3 6.7 4 13.2 2.3 20 6.9 1.3-2.4 2.8.6 4-1.7m28.9 7.8c-1-1.5-1.8.1-2.7.1.5.4 1 .9 1.4 1.3.4-.4.9-.9 1.3-1.4m-3.4-32.6c.4-.3.9-.2 1.4.4.3-.3.6-.6.9-1-.6-.6-.1-1.2-1-1.8-.6.9-1.8 1.7-1.3 2.4m37.5.5c-1.4-2-2.7-1.6-4-.3 1.4 1.6 2.7-.2 4 .3M761.4 68.4c-1.1 1 .8 3.7 1.9 3.1-2.1-4.8-5.5-9.5-6.7-14.4 1.4-.8 2.5-1.9 3-3.6 1.5-5.2-4-6.6-8.4-4.9-.1-.1-.2-.3-.3-.4v.2c-.7-.5-1.5-.8-2.4-.8-2.2 0-4.1 1.6-4.1 3.7 0 1.3.8 2.5 1.9 3.1-.1.6 0 1.3.1 2.1.7.4 1.4.7 1.2 1.3 1.9.5 4.1.6 6.2.3 3.1 1.7 3.6 3.7 4.3 5.7-1.8-.6-3.5 1.7-3.3 3.4 1.9 1.8 3.8.5 4.3-1.2.3.8 1 1.6 2.3 2.4"/>
    <path d="M774.9 72.4c1.2-1-1.1-3.8-2.4-3.3.3.4.9.7.5 1.1-.2.3-.5.3-.7.4-1.9-1.7-4.1-1.4-6.4-2-.8 1.3-1.9 2.6-1.6 3.6 1.3 2.4 5.8 1.3 6.6 2.4l2.1-3.3c-.1-.2-.3-.3-.4-.4.7-.4 1.6 1.2 2.3 1.5m11.6-2.7c1 .8 2 1.2 2.7-.6l-1.5-1.2c.1-.3.1-.5.1-.8 0-2-1.7-3.5-3.8-3.5-.3 0-.7.1-1 .1-1.5-1.3-3-2.4-4.5-3.1-.6 2.3-.8.8-2.3 1 1.5.7 3.3 2 4.7 3.4-.5.6-.7 1.3-.7 2.1 0 2 1.7 3.5 3.8 3.5 1-.1 1.9-.4 2.5-.9m-35.7 40.8c-1.8 2.3 1.9 5.8.2 6.8.8.7 1.7 1.4 2.5 2.2 1.7-.8 1.7-1.9 1.1-3.2.5-.3.8-1 .6-1.7-.6 0-1 .2-1.3.6-1.1-1.5-2.8-3.2-3.1-4.7m19.4-11.7c3.4 2.6 3.8 7.4 7.8 8.7 1.4-1.7 1.9-3.3-.4-4.7-1.6-1.1-.9 1.2-1.9.6-2.8-1.1-2.2-6.1-5.5-4.6m134 66.3c1.8 2.2 1.7 4.6 1 7.1 2.7 2.7 3.9 4.2 7.1 6.1.5-.5 1-1.4 1.6-1 4.4 2.6 9.5.9 12.5-2.4 2.5-2.8 1.8-6.8 3.8-8.4-1-1.9 0-3.9-2.1-5.7.4-.5.8-.2 1.2-.5-3.3-4.7-8.5-7.9-12.6-7.7-4.7 1.1-11.8 6.2-12.5 12.5zm18.4-1.3c-2 1.4 1-2.2 0 0zm-61.4-89.9c-6.2.1-12.9-5.7-18.9-4 6.6 4.8 12.9 5.7 19.4 9.7 1.1-1.4 2.5-.1 3.6-2.3-1.4-1.2-2.8-2.3-4.1-3.4M592.3 105c-.4 2.1 1.3 2.4 1.1 4.3 4.4 1.4 4.1-2.7 3.5-5.4-2.5-1-3.2.5-4.6 1.1m17.2 28.5c-.4-.1-.9-.1-1.3-.2-.1.4-.1.9-.2 1.3.4.1.9.1 1.3.2.1-.5.1-.9.2-1.3m-3.5-7.8c.2-.9.2-2.5-.5-1.4-.2.9-.2 2.5.5 1.4M437.8 73.5c-.9.3-1.3 1.1-1.6 2.2 1.2 1.3 4.2.8 5-.5-2.5.5-1.7-1.5-3.4-1.7M420 69.2c-.5-.2-1.3.2-.2 1.4.3-.3.5-.5.6-.7.7 1 1.8 1.7 3.2 1.7 2.1 0 3.7-1.6 3.7-3.5s-1.7-3.5-3.7-3.5c-2.1 0-3.7 1.6-3.7 3.5-.1.4 0 .7.1 1.1m192.2 35.3c-1-1.1-1.3-4.2-2.8-4 1.2 2.2.4 3.9 2.8 4m-26.7-49.8c-.8 1.7.6 4.4 2.5 4.9.7-.9-.1-6-2.5-4.9m-38.7 44.6c-.6-.1-1.3-.2-1.9-.3-.1.6-.2 1.3-.3 1.9.8 0 1.8.4 2-.4-.5-.2-1.3-.2-1.2-.8.6 0 1.3.2 1.4-.4m-82.9-45.2c.1-.4.2-.7.7-.5.1-.4.1-.9.2-1.3-.6-.1-1.3-.2-1.9-.3-.1.6-.2 1.3-.3 1.9.5.1.9.1 1.3.2m-26.7-11.8c-2.7-.9-4.4-.3-5 1.8 2-.1 4.5.4 5-1.8m138.1 23.2c-.2 5.3 2.9 11 .3 16.1 1.1 1.4 1.3 3.7 3.1 3.9 2.1-1.7 1.2-3.6 2.6-5.4-4.6-4.8-2.5-11.2-6-14.6m678.4-8.1c-1 .2 0 .6-.1 1.3.8-.1.8-1.3.1-1.3M1207.4 73c-.9 2.5 1.8 1.9.9 4.4 2.6.4 4.3-.1 6.3-.2 1.5-3-.2-5-1.9-6.6-2.2.2-3.8 1.3-5.3 2.4m-2-19.6c-.4 0-.9 0-1.3-.1 0 .4 0 .9-.1 1.3.4 0 .9 0 1.3.1.1-.4.1-.8.1-1.3m-10.2 41.3c-1.2-.1-2.5-.1-3.8-.2-1.1 3.8 4.7 4.2 3.8.2m-1-43c.2 2.7 1.3 1.4 2.9 1.5 0-.6.1-1.3.1-1.9-.7-1.1-2.5-.8-3 .4m-7.8-9.2c1.3.3 1.7-.3 2.6-.4.1-1.4-1-1.7-.4-3.5-2.6.4-1.2 1.5-2.2 3.9m1.3 15.3c1.1-1.8-2.8-2-1.9-.1.6 0 1.2 0 1.9.1m-13 36.2c-.7-.6-.1-2.4-1.8-2-.5 1.7.1 2.3 1.8 2m.4-44.9c-.4 0-.9 0-1.3-.1-.2 1 .5 1.1.5 2 .8.3 2.4-1.7.8-1.9m-2.3-11.4c.4 0 .9 0 1.3.1-.1-.6.3-.6.7-.6.3-1.3-2.9-1.2-2 .5"/>
    <path d="M1173.2 38.6c-.1-2.3-1.5-1.8-3-1.5.4.7 1.4.7 1.1 2 .6-.2 1.1-.5 1.9-.5m-2.7-10c.4.9 1.3 1.3 2.5 1.4.4-2-1.5-2.4-2.5-1.4m-1.8 52.2c1-1.8-2.8-2-1.9-.1.6 0 1.2 0 1.9.1m-.9-48.5c.1.5.6.7.6 1.3.4 0 .9 0 1.3.1.3-1.3-.9-1.2-1.9-1.4m-3.3 34c-1.8.2-.1 2 1.2 1.4-.1-.8-1.2-.6-1.2-1.4m2.9-31.2c-.8.2-1.4.8-1.4 1.9 1.4.3 1.3-.9 1.4-1.9m-1.8 7.6c.4-1.4-.9-1.3-1.9-1.4.1.5.6.7.6 1.3.5.1.9.1 1.3.1m-.6-3.7c.2-2.1-2.9-2.7-2.6-.1.9 0 1.8 0 2.6.1m-2.2 8.1c-.6 0-1.3-.1-1.9-.1 0 .6-.1 1.3-.1 1.9.4 0 .9 0 1.3.1-.1-.6.3-.6.7-.6-.1-.4-.1-.8 0-1.3m.6-15c-1.4-.4-1.3.9-1.4 1.9.5-.1.7-.6 1.3-.6.1-.4.1-.8.1-1.3m-5.2 43.4c-4 .5-6.6 2.6-8 6 3-1.6 7.1-2.1 8-6m-1.5-39.5c-.2.9-2.7-1.1-2.4 1.6 2.7-.1 3.5-.6 5.9-2 0-.8.1-1.5.1-2.3-1.4.2-1.2-1.1-2.8-.7-.8.6-.8 2-.8 3.4m-1 36.7c.4-1.4-.9-1.3-1.9-1.4.1.5.6.7.6 1.3.4.1.8.1 1.3.1m1-27.9c1-1.8-2.8-2-1.9-.1.6 0 1.2 0 1.9.1"/>
    <path d="M1156.4 35.7c0-.4 0-.9.1-1.3-.4 0-.9 0-1.3-.1 0 .4 0 .9-.1 1.3.4.1.8.1 1.3.1m-.9-5.8c-1.6.2-.7 2.9 1.2 2 .5-1.4-1.2-.9-1.2-2m-1.1 10c1.8-.2-.8-2.3-1.9-1.4-.1.1 2.1 1.3 1.9 1.4m-1.7 2.5c0-.4 0-.9.1-1.3-.6 0-1.3-.1-1.9-.1 0 .6-.1 1.3-.1 1.9.4 0 .9 0 1.3.1-.2-.5.2-.6.6-.6m-3.8-8.9c-1.7.4.8 1.6-.2 3 .6-.4 1.4-.5 2.5-.4 0-.5.1-1 .1-1.5-1.5.1-2.3-.2-2.4-1.1m-6.1.7c-2.2 1.5 2.1 2.8 0 0m-2 16.9c-.6.7-2.4.1-2 1.8.6 0 1.3.1 1.9.1 0-.6.1-1.3.1-1.9m-1.1-16.4c-2.1-.2-2.7 2.9-.1 2.6-1.1-1.3 0-.8.1-2.6m-2.3 11.7c-.4 0-.9 0-1.3-.1 0 .4 0 .9-.1 1.3.4 0 .9 0 1.3.1.1-.4.1-.8.1-1.3m-4 5c-.4 0-.9 0-1.3-.1 0 .4 0 .9-.1 1.3.4 0 .9 0 1.3.1.1-.4.1-.8.1-1.3m-3.9 3.7c-1.8.5.4 2.9 1.2 1.4-.1-.7-1.3-.5-1.2-1.4m-.3-22.9c.1 2.5 2 1.8 3 .8.2-1.4-2.1-.4-3-.8m0 9.1c-.7-.5-1.5-.8-2.9-.7-.5 2.2 1.2 2.6 2.8 3-.9-1.2.1-.8.1-2.3m-1-4.3c-1.6-.8-3.2-.6-3 2.2 1.7.5 1.1.5 2.8.2.2-.9.2-1.7.2-2.4m-3.2 51.9c-.6 0-1.3-.1-1.9-.1 0 1.8-1.1 1.2-.1 2.6.5-.3 1.1-.6 2-.5-.1-.8 0-1.4 0-2"/>
    <path d="M1122.2 37.5c1.2.5-.3 3.5 1 3.8 2.4 1.1.4-2.7 2-2.4 0-1.3-1.4-1.4-3-1.4m.8 18.2c2.3-1.6-3.3-1.8 0 0m-1.7-10.2c.7 1.8 3.4.2 2.7-1.8-.9.6-1.3 1.7-2.7 1.8m.1-18.4c.6-.1.6.3.6.7 2.7-.6-2.2-2.8-1.3-.1.6.1.7-.2.7-.6m-.3 13c-.4-.9-1.3-1.3-2.5-1.4 0 .9-.1 1.7-.1 2.6 1.9.8 1.5-1 2.6-1.2m-8.9 29.9c.2 2.2 1.9 1.1 3 .9.2-1.7-1-1.7-1.9-2.1-.2.5-.5 1.1-1.1 1.2m1 6.5c-2.4-.1-3.8.8-4 2.9.5-.3 1.5-.7 1.6.1.6-.1.5-.9.6-1.5.5 0 1.1.1 1.6.1.2-.5.2-1 .2-1.6m-.5-25.6c.4-1.4-1.2-1-1.2-2-1.6.2-.6 3 1.2 2m-2.7 10.3c-1.3-.4-1.7.3-2.6.5 0 1.9 3 1.7 2.6-.5m-3.4-5.4c2.5-1.8-1.9-2.3 0 0m46.3-23.3c2.4-.4 1.4-5.6-1.7-4.9.7 2 3.4 2.5 1.7 4.9m69.5 31c-1 4.7 2.5 5.3 1.8 9.7 3.3.8 2.1 5.6 3.7 8 9 5 17.6-6.1 23.7-8.3 1-3.4.7-6-.1-9-6.7-5.6-16.1-2.3-24.8-4.4-1.4 1.4-2.9 2.6-4.3 4m-284.2-18c4.2-6.8-5.6-10.7-4.9-1.9 1.6.7 3.3 1.3 4.9 1.9m148-11.1c2.9.2 4.6 2.1 8 1.2-1-.9-5.6-1.7-8-1.2m20.6 2v-.7h-2.1c0 .3.3.5.7.7h1.4m-96.9 1.3c2.8.2 2.8-1.5 0-1.2-.5.7-.5.4 0 1.2m-9.4 3h2.1c1.1-.4 0-1-1.4-1.2-.6.2-.9.6-.7 1.2M984 43.1c-1 .4-.7 1.9 1.4 2 1.6-.5 0-1.9-1.4-2m127-7.9c.5-.1 1.4 0 1.4-.2-.5 0-1.3-.1-1.4.2m8.2 1.3c-1.7-.8-5.9-.6-8-1.2 1.2.9 5.1 1.9 8 1.2m-52.4 11c-.1-.5-.5-.8-1.4-1-1.6.6-.1.9 1.4 1m22.2.4c1-.6-1.8-1.5-3.8-1.7.6.8 2.4 1.2 3.8 1.7m61.2-9.2c-2.5-.2-4.3-.6-7-.7.3.2.7.3 1.1.5-.6-.1-1.1.1-.8 1.3.5.1.5-.2.6-.6.5-.1.5.3.5.7 1.1-.3.7-.9.1-1.2.3.1.6.2 1 .3-.4.5.7 1.6 1.6 1.1-.1-.5-.6-.6-.9-.9 1.2.3 2.5.4 3.8 0-.7-.1-.3-.3 0-.5m-196.9 9.1c-4.5-.1-3.2 1.8-1.1 2.4 1.9-.8 3-1.2 1.1-2.4m72.8 1.6c-.9.3-.9.9 0 1.2 3.1.2 2.3-1.2 0-1.2m58 11.7c.7-1.4-1.3-1.7-2.9-2.2.7.9.6 2.1 2.9 2.2M945.3 71.3c-.6.3-3 2.4.6 2.2.7-2.4 4.6-4.6 4.3-7.3h-1.1v-.1c0-2-1.8-3.6-4-3.6s-4 1.6-4 3.6 1.8 3.6 4 3.6c.2 0 .4 0 .6-.1-.3.6-.5 1.2-.4 1.7M1052 57.4c.9-.6-2-.7-1.8-.2 1.2.1 1.7.6 3.5.5 1.1.9 3.3 1.4 6.5 1.5-1.4-1.7-3.9-1.4-8.2-1.8M885.6 37.7c1.1-.4 0-1-1.4-1.2-.6.3-.9.7-.7 1.2h2.1m-17 4.8c1.1-.3.5-1.1-.4-1.5.1-.2.3-.4.4-.6l-1.5-.9-.9 1.5c.2.1.4.3.7.4-.1.5.4 1.1 1.7 1.1m79.8 1c-1.5.5 0 .8 1.4 1-.1-.4-.5-.8-1.4-1m-83.1 10c4.1-.9.2-3.3.6-4.9-1.8-.4-1.4-1.5-2.5-2.1h-1.9c-.3.2-.7.5-1.3.6.1 1.5.3 2.9 1.9 3.4.2.5-.4 3 3.2 3m-36.7 15.4c-.6.3-3 2.3.6 2.1.3-.9 1-1.8 1.8-2.7-.5 1-.9 2-.8 2.7 1.9 3.2 5.3.8 5.5-1.7.7.4 1.4.6 2.3.6 2.3 0 4.2-1.7 4.2-3.7s-1.9-3.7-4.2-3.7c-2.3 0-4.2 1.7-4.2 3.7v.2c-.3-.1-.6-.3-.9-.4-.1 0-.2.1-.3.2.5-.7.8-1.5.7-2.3-.7 0-1.7 0-1.8.2.3 1.2-3.3 2.9-2.9 4.8M934 55.5c.9-.6-2-.7-1.8-.2 1.2.1 1.7.6 3.5.5 1.1.9 3.3 1.4 6.5 1.5-1.4-1.8-3.9-1.5-8.2-1.8m-870.4-18c-1.1.8-.8 1.8-2.4 2.4 1.2 1.6-.3 2.8 1.7 4.6-.7.3-.6 1.9 0 3 2.3-.2 6.1-.9 6.3-3.6.8-.4 1.6-.8 2.5-1.1-.3-1.2.7-1.8 1.5-2.4-.5-.8-1.4-1.7-.3-2.2-.7-1.1-2.2-.2-2.8-1.7-2.2.4-4.3.7-6.5 1m-11.3 4.1c1.3.8-.1 1.2.5 1.9 1.8-.9 8.1-3.5 8.4-5-.1-2.5-4.3-.8-5.4-3.1-.8-.7 1.7-.9.6-1.7-1.8-.7-4.2.1-5.8-1.1-2.7.5-9.6.9-11.7 4.1-.1.2.4.7.2.9-.7.8-.5.5-.8 1.5-.3.8 0 2 1.3 2.9.3-.2.2-.4.5-.6 3.3 3.5 7 1.5 12.2.2m-7.9-12.4c.4 1.4 1.6.4 2.7-.1-.2-.3-.5-.6-.7-.9-.3.9-.8.2-2 1m-12.2 3.9c.6 1.3 1.7 1.2 2.3 2.4 1-.7.4-1.5 1.9-.9 1.2-.2-.7-2.1.5-1.4.9-.4-.6-1.1-.7-1.6-1.2.4-3.3 0-4 1.5m-2.3-5.5c-1.1.4-.6 1.1-1.7 1.5l.9 1.5c1.3-.6 1-.4 2.1-1.4-.3-.8-.7-1.5-1.3-1.6m14.2 27.6-1.2.6c.5.5.7 1.7 1.7.8.1-.4-.1-.9-.5-1.4m-19-24.5c-1.5.5-2.1.9-2.9 2 1 .9 2.4.7 4-.3-.3-.5-.7-1.1-1.1-1.7M39 55.3c.3.3.9-.1 1.4-.3-.2-.6-.7-.4-1.3-.2.4.2.2.4-.1.5M33.5 47c-.1-1.1-2.5 0-1.2.6l1.2-.6M17.6 30.2c1.1-.4 1-1 1.7-1.5-.2-1.2-1.1.4-1.3-.8-1.1.4-1 1-1.7 1.5.1 1.2 1.1-.4 1.3.8m-7.9 4.4c-.2-.6-2.3-.3-1.8.5.2.2.3.4.5.6.3-.9.9-.1 1.3-1.1m1367.5-6.2c1 .5 2.2 1.4 2.8.5.6-.9-.4-1.5-1.4-2-.5 0-.9.7-1.4 1.5m0 7.7c-.7-1.5-2.7-1.1-4-1.6-.1.5-1.5 1.3-.7 1.6 1.2-.7-.7 1.3.5 1.4 1.5-.5 1 .3 1.9.9.7-1.1 1.8-.9 2.3-2.3m2.4-5.5c-.6.1-1 .8-1.3 1.6 1.1.9.8.8 2.1 1.4l.9-1.5c-1.1-.4-.7-1.1-1.7-1.5m-15.7 29c1 .9 1.2-.3 1.7-.8l-1.2-.6c-.4.5-.6 1-.5 1.4m23.3-23.8c-.8-1.1-1.3-1.6-2.9-2-.4.6-.8 1.2-1.1 1.8 1.6.8 3 1.1 4 .2m-17.7 22.5c-.2-.1-.4-.3-.2-.5-.5-.2-1-.4-1.3.2.5.2 1.1.6 1.5.3m7.7-7.7c1.3-.6-1.1-1.7-1.2-.6l1.2.6m13.4-19.7c-.2 1.2-1.1-.4-1.3.8.7.4.6 1.1 1.7 1.5.2-1.2 1.1.4 1.3-.8-.8-.5-.7-1.1-1.7-1.5m-8.4 20.4c-1.2-.9-.9-.7-2.3-1.4-.2.4-.5.8-.7 1.2 1.1.9 2.1 1.7 3 .2m18.4-14.2c.4-.8-1.7-1-1.8-.5.4.9 1 .2 1.4 1.1.1-.2.3-.4.4-.6m6.5-1.6c-.6.8-3.2.8-2.8 1.5 1.3-.4 2.3 1.1 3.4 1.5.5-1.1 2.1.7 2.5-.6.5-1.2-2.6-1.8-3.1-2.4m14.1-3.8c-1.3-1.3-2.1.8-2.5-.5-.2.4-.6.7-.2 1 .9-.7.1.9 1.2 1 1.6.1 3.5 1.1 4.4-.8-.4-.3-1-.5-.9-.8 1 .7 1.6 0 2.1-.8-.8-.4-1.7-.8-2.5-1.3-1.1 1-.8 1-1.6 2.2m5.2 7.6c-.2.2-.3.4-.5.6-.1.2-.2.4.2.5.4-.3.6 0 .8.4.2-.3.4-.6.7-.9l-1.2-.6m-44.2 21.2c0-.4.3-.5.6-.7-.7-.1-1.5-.2-2.2-.2 0 .3-.2.7.5.8.2-.3.6-.1 1.1.1m-508.5 20c-1.9 0-3.4 1.3-3.4 3s1.5 3 3.4 3h.2c1.9 0 3.4-1.3 3.4-3s-1.5-3-3.4-3h-.2m-21.5 3c0 1.7 1.6 3 3.5 3s3.5-1.3 3.5-3-1.6-3-3.5-3-3.5 1.4-3.5 3m-14.4-3c-1.9 0-3.5 1.3-3.5 3s1.6 3 3.5 3 3.5-1.3 3.5-3c-.1-1.6-1.6-3-3.5-3m-20.6 3c0 1.7 1.6 3 3.5 3s3.5-1.3 3.5-3-1.6-3-3.5-3-3.5 1.4-3.5 3m56.5-21c-2.4 0-4.4 1.8-4.4 4s2 4 4.4 4h.2c2.4 0 4.4-1.8 4.4-4s-2-4-4.4-4h-.2m-18.4 0c-2.2 0-4 1.8-4 4s1.8 4 4 4 4-1.8 4-4c-.1-2.2-1.8-4-4-4m-36.1 8c2.2 0 4-1.6 4-3.5s-1.8-3.5-4-3.5-4 1.6-4 3.5c0 2 1.8 3.5 4 3.5m-17 0c2.2 0 4-1.6 4-3.5s-1.8-3.5-4-3.5-4 1.6-4 3.5c0 2 1.8 3.5 4 3.5m71.5-24c-3 0-5.4 2.2-5.4 5s2.4 5 5.4 5h.2c3 0 5.4-2.2 5.4-5s-2.4-5-5.4-5h-.2m-54.4 0c-2.8 0-5 2-5 4.5s2.2 4.5 5 4.5 5-2 5-4.5c-.1-2.5-2.3-4.5-5-4.5m72.5 34c-1.9 0-3.5 1.3-3.5 3s1.6 3 3.5 3 3.5-1.3 3.5-3c-.1-1.6-1.6-3-3.5-3m18 0c-1.9 0-3.5 1.3-3.5 3s1.6 3 3.5 3 3.5-1.3 3.5-3c-.1-1.6-1.6-3-3.5-3m18 6c1.9 0 3.5-1.3 3.5-3s-1.6-3-3.5-3-3.5 1.3-3.5 3c-.1 1.7 1.5 3 3.5 3m-17.5-23c-2.2 0-4 1.6-4 3.5s1.8 3.5 4 3.5 4-1.6 4-3.5c-.1-1.9-1.8-3.5-4-3.5m16.9 7c2.2 0 4-1.6 4-3.5s-1.8-3.5-4-3.5-4 1.6-4 3.5c0 2 1.8 3.5 4 3.5m40-3.5c0-1.9-1.8-3.5-4-3.5s-4 1.6-4 3.5 1.8 3.5 4 3.5c2.3 0 4-1.5 4-3.5m-75.9-20.5c-2.8 0-5 2-5 4.5s2.2 4.5 5 4.5 5-2 5-4.5-2.3-4.5-5-4.5m23.9 4.3c0-2.4-2.2-4.3-5-4.3s-5 1.9-5 4.3c0 .9.3 1.6.8 2.3-.6.8-.9 1.6.2 2.4.8-.3 1.6-.5 2.4-.6.5.1 1 .2 1.5.2 2.9 0 5.1-1.9 5.1-4.3m17 .2c0-2.5-2.2-4.5-5-4.5s-5 2-5 4.5 2.2 4.5 5 4.5 5-2 5-4.5m12.6 4.5c2.5 0 4.5-1.8 4.5-4s-2-4-4.5-4-4.5 1.8-4.5 4c-.1 2.2 2 4 4.5 4"/>
    <path d="M963.9 45.9c-2.5 0-4.6 1.8-4.6 4.1s2.1 4.1 4.6 4.1c.7 0 1.4-.2 2-.4 0 1.2.2 2.3.5 3.4-.7-.3-1.8-.5-2.7-.8.7.8.6 1.8 3.1 2 1.1 2.8 3.2 5.5 5.9 7.8 6.7 2.3 15.2 2.9 17.9-5 2.8-3.1.9-5.1 2.7-7.9-3.1-4-4-8.7-11.4-11.6-3.5.2-6.7 1.6-10.3 1.3-.2.2-.4.3-.5.5-.8-.4-2.3-.7-3.5-.8.5.6 1.7.9 3 1.3-1.2 1.2-2.2 2.4-2.9 3.7-1-1.1-2.3-1.7-3.8-1.7m35.3 1.6c-2.2 0-4 1.6-4 3.5s1.8 3.5 4 3.5 4-1.6 4-3.5-1.7-3.5-4-3.5m-641 33c-1.6 0-2.9 1.1-2.9 2.5s1.3 2.5 2.9 2.5h.2c1.6 0 2.9-1.1 2.9-2.5s-1.3-2.5-2.9-2.5h-.2m-17.4.5c-1.4.3-2.5 1.3-2.5 2.7 0 1.5 1.4 2.8 3.1 2.8 1.7 0 3.1-1.3 3.1-2.8 0-1.3-.9-2.3-2.2-2.6 2.3-.1 4.7-1 5.6-2.2 6.8-.2 11.8-2 15.3-5-8.2-1.6-11.6 4.4-20.4 3.6-.5 1.6-3 1.6-3.4 3.3.5.1.9.2 1.4.2m-15.6-.5c-1.7 0-3 1.1-3 2.5s1.3 2.5 3 2.5 3-1.1 3-2.5c0-1.3-1.3-2.5-3-2.5m-17 0c-1.7 0-3 1.1-3 2.5s1.3 2.5 3 2.5 3-1.1 3-2.5c0-1.3-1.3-2.5-3-2.5m50-16c-2.2 0-3.9 1.6-3.9 3.5s1.8 3.5 3.9 3.5h.2c2.2 0 3.9-1.6 3.9-3.5s-1.8-3.5-3.9-3.5h-.2m-17 0c-2.2 0-4 1.6-4 3.5s1.8 3.5 4 3.5 4-1.6 4-3.5-1.7-3.5-4-3.5m-16 0c-2.2 0-4 1.6-4 3.5s1.8 3.5 4 3.5 4-1.6 4-3.5-1.7-3.5-4-3.5m-16.5 0c-1.9 0-3.5 1.6-3.5 3.5s1.6 3.5 3.5 3.5 3.5-1.6 3.5-3.5-1.5-3.5-3.5-3.5m-16 0c-1.9 0-3.5 1.6-3.5 3.5s1.6 3.5 3.5 3.5 3.5-1.6 3.5-3.5-1.5-3.5-3.5-3.5m-15.9 0c-1.9 0-3.5 1.3-3.5 3s1.6 3 3.5 3 3.5-1.3 3.5-3-1.6-3-3.5-3m81.4-16c-2.7 0-4.9 2-4.9 4.5s2.2 4.5 4.9 4.5h.2c2.7 0 4.9-2 4.9-4.5s-2.2-4.5-4.9-4.5h-.2m-17 0c-2.8 0-5 2-5 4.5s2.2 4.5 5 4.5 5-2 5-4.5-2.2-4.5-5-4.5m-15.4 0c-2.5 0-4.5 1.8-4.5 4s2 4 4.5 4 4.5-1.8 4.5-4-2.1-4-4.5-4m-17 0c-2.5 0-4.5 1.8-4.5 4s2 4 4.5 4 4.5-1.8 4.5-4-2.1-4-4.5-4m-16.6 0c-2.2 0-4 1.8-4 4s1.8 4 4 4 4-1.8 4-4-1.7-4-4-4m66-16c-3.3 0-5.9 2.5-5.9 5.5s2.7 5.5 5.9 5.5h.2c3.3 0 5.9-2.5 5.9-5.5s-2.7-5.5-5.9-5.5h-.2m-32.4 1c-3 0-5.5 2.2-5.5 5s2.5 5 5.5 5 5.5-2.2 5.5-5c-.1-2.7-2.5-5-5.5-5m-17.6 0c-2.8 0-5 2-5 4.5s2.2 4.5 5 4.5 5-2 5-4.5c0-2.4-2.2-4.5-5-4.5m-16 0c-2.8 0-5 2-5 4.5s2.2 4.5 5 4.5 5-2 5-4.5c0-2.4-2.2-4.5-5-4.5m82 47c-1.7 0-3 1.1-3 2.5s1.3 2.5 3 2.5 3-1.1 3-2.5c0-1.3-1.3-2.5-3-2.5m13 2.5c0 1.4 1.3 2.5 3 2.5s3-1.1 3-2.5-1.3-2.5-3-2.5c-1.6 0-3 1.2-3 2.5m21-2.5c-1.7 0-3 1.1-3 2.5s1.3 2.5 3 2.5 3-1.1 3-2.5c0-1.3-1.3-2.5-3-2.5m-34-16c-2.2 0-4 1.6-4 3.5s1.8 3.5 4 3.5 4-1.6 4-3.5-1.7-3.5-4-3.5m16.1 0c-2.2 0-4 1.6-4 3.5s1.8 3.5 4 3.5 4-1.6 4-3.5c-.1-1.9-1.8-3.5-4-3.5m17.5 0c-1.9 0-3.5 1.6-3.5 3.5s1.6 3.5 3.5 3.5 3.5-1.6 3.5-3.5c-.1-1.9-1.6-3.5-3.5-3.5m-33.6-16c-2.8 0-5 2-5 4.5s2.2 4.5 5 4.5 5-2 5-4.5-2.2-4.5-5-4.5m16.6 0c-2.5 0-4.5 1.8-4.5 4s2 4 4.5 4 4.5-1.8 4.5-4-2.1-4-4.5-4m17 0c-2.5 0-4.5 1.8-4.5 4s2 4 4.5 4 4.5-1.8 4.5-4-2.1-4-4.5-4m15.8 0c-2.4 0-4.3 1.8-4.3 4s1.9 4 4.3 4c.7 0 1.4-.2 2-.5.3.8 1 1.5 2.9 1.5 4-.9.2-3.4.6-5-.6-.1-.9-.4-1.2-.6-.4-1.9-2.2-3.4-4.3-3.4m17.6 8c2.2 0 4-1.6 4-3.5s-1.8-3.5-4-3.5-4 1.6-4 3.5 1.8 3.5 4 3.5m20-3.5c0-1.9-1.8-3.5-4-3.5s-4 1.6-4 3.5 1.8 3.5 4 3.5c2.3 0 4-1.5 4-3.5M43.1 105.1c-.7.2-.4 1.3-1.3 1.3.1.8 1.2.5 1.9.6v-1.3c-.5.1-.6-.2-.6-.6m8.3-12.5c-.8.5-1.1 1.5-2.1 1.8-.1 2.1 0 3.9.7 5.3 6.5 4.2 9.3-8.3 1.4-7.1m145 18.9c-2.9.8-4.9 2.6-7.1 4-3.1 8.3 1 17.3 11 14.4 2.4-1.3 3.6-3.9 4.9-6.3.4-3.5-.9-5.2-1.1-8.1-2.1-1.8-4.9-2.9-7.7-4M104 88c1.9 1 1.9-2.9 0-1.9V88m37 28.9c1.9 2.4 2.2-1.9 0 0m-.8-9.9c-1.8-1-2.5.1-4.6 0 0 2.7-.7 3.1 0 5.4 2.3.1 2 .4 4.1 0 .1-1.9.8-3.2.5-5.4m-33.6-39.2c2.4-1.9-1.9-2.2 0 0m164.5 14.5c-3.1-.3-5.7-1.5-7.9 0 .7 1.7 1.4 3.3 2.3 4.8 2.5.1 5.3 1.3 6.7-.5 0-1.8-1.2-2.4-1.1-4.3m-54-.3c1.4.3 1.2-.9 1.3-1.9-.5.1-.6.7-1.3.6V82m-6.9 2.9c.3-1.8-.5-2.6-2.3-2.3-1.8 1.6.7 4.1 2.3 2.3M116.9 81c.5 1.4-.8 1.3-.6 2.5 1.7-.4 3.3-.8 2.9-3-.5.4-1.3.6-2.3.5m114.2-2.9c-.7.2-.4 1.3-1.3 1.3.1.8 1.2.5 1.9.6v-1.3c-.5.1-.6-.2-.6-.6M280 105c1.9 1 1.9-2.9 0-1.9v1.9m-24.3-6c3.1.5-3.1-4.2 0-.6.1 0 0 .6 0 .6M126.4 66.1c-1.4-.3-1.2.9-1.3 1.9.8-.3 1.3-.8 1.3-1.9m168.3 30.8c1.3-1.1-2.9-3.1-1.9-.6 0 .2 1.3 1.1 1.9.6m-65.2-37.6c2 .7 1.6-1 2.6-1.3-.2-1.1-1.1-1.5-2.6-1.3v2.6m8.6-2c1.7.2 2.1-.9 1.9-2.6h-2.6c.5.6.7 1.5.7 2.6m15-1.9v1.3h1.3v-1.3h-1.3m-19-1v1.3h1.3v-1.3h-1.3m44.1 28.5c2.8-.3-.6-3.8 0 0m14.6-2.6c-1.4-1.9-4.1.8 0 0m-24-3c.2.8 1.7.5 1.9 0 .6-1.4-2.4-1.5-1.9 0M144 49c1.9 1 1.9-2.9 0-1.9V49m-86.9 80.8c-2.2-.5-3.1.4-2.6 2.6h2.6v-2.6m197.1-57.5c.6-2.2-4-1.9-2.7.6.3-.1.8-.1 1.3 0 .2.5.7.4.9.1.3 0 .5-.2.5-.7M48 124.3c-.6-.9-1-1.9-2.6-1.8.8 1.4-.1 1.1.6 2.9 1.5.4 1-1 2-1.1m20.2-5.8c-1.9-1-3.5-1.2-5.8-.5-1.1 5.2 4 5.9 5.8 2.8v-2.3m206.9-58.1v1.3h1.3v-1.3h-1.3M147.6 32.3h-1.3c.1.6-.3.6-.6.6-.3 1.3 2.9 1 1.9-.6M65.7 108c-.7-.6-.2-2.4-1.9-1.9v1.9h1.9m-3.4-7.7c2.3.6 1.1-2.1.6-2.6-1.8.6-.7 1-.6 2.6M40 94.6c-1.9-.3-2.6.6-3.7 1.1-.2 2.2 1 3 3.2 2.8 1-1.6.8-1.7.5-3.9m31.7-9.1h-2c-.8 1.7-.3 2.8 0 4h2.5c0-1.5.2-3.2-.5-4M127.9 71c-2.3 4.6-5.1 8.7-4.6 16.1 2 3.9 4.9 7 8.1 9.8 3 .8 7.2.5 11 .6 3.1-.8 4.1-3.6 7.5-4 2.3-4.7 3.2-12.7 1.2-18.4-3.2-3.6-7.7-7.9-13.9-7.5-2.1.1-3.8 3-6.4 1.7.3 1.8-1.2 1.8-2.9 1.7zm16.8 14.4c.4.1 1.1 0 1.2.6-.4-.1-1.1 0-1.2-.6zm-.5-11.5c-1.6-1.8 1.7 1.6 0 0zM83.3 108c0 2.9 1.1 6.9 3.2 8.9 1.2-.3 1.2.7 2.4.4 4.9 1.4 7.3-3.3 9.5-6.1-.3-6.2-3.4-9.4-9.5-9.7-3 1.2-4.5 3.7-5.6 6.5zm6.3-5.3c.3.1.8 0 .8.4-.4 0-.8 0-.8-.4zm-4 8.5c-.3-.1-.8 0-.8-.4.3.1.8 0 .8.4zm389.7-68.9c0-.5-.6-.3-1-.4 0 .4.6.3 1 .4m-6.1 2.9c1.3 1 3.7-.4 5-.7 0-.6-1.5-1.4-.5-1.6-2-1.3-3.5 1.3-4.5 2.3m-2-.5c-.1-.8-1.2-.4-1-1.6-1.6.1-3.4.2-5.1.3.7-.8 2.1-.6 2.5-1.8-1.5-.7-3.7.9-2.6 1.8-5.1.5-10 1.4-10.8 4 1.2 2.4 4.4 0 7.3.3 2.3-1.8 7-1.5 9.7-3m-25.4 18.9c-3.3.6-6.6 1-7.6 3.5.4.9 1 1.4 1.9 1.5.6 1.1 1.9 1.9 3.4 1.9 2 0 3.7-1.4 3.7-3.2 0-.3-.1-.6-.1-.8.2-.2.5-.3.6-.4 9.6-.6 18.3-2 22.6-7-5.3-2.4-10.9 2.7-15.8.6-1.9 1.1-4.4 1.7-5.6 3.4-.4.1-.7.2-1.1.3 2.4-1.8 3.9-4.9 6.3-6.7-.9.6-2 1.3-3.1 1.9.2-.4.3-1 .2-1.6-1.3 1.2-4.4.9-4.3 3.3.7 0 1.2 0 1.8-.1-1.5.8-2.6 2-2.9 3.4M582.5 54c-1.1.3-.5 2.9 1.1 1.9-.3-.7-.8-1.2-1.1-1.9m2.7 8.3c.3 1.4 1.6-.1.9-1.1-.5.2-.2 1-.9 1.1m-122 8.4c-1.6-.7-4.4.9-5 2.5 2.3 1.4 3.2-2.1 5-2.5m-12.1 5.1c.2-.4.5-.8.4-1.5-.5 0-1 .1-1.5.1 0 .5.1 1 .1 1.5.3-.1.7-.1 1-.1m66.2-5c-2-.3-1.8 3.1.2 2.5.2-1.6.2-1-.2-2.5m7.7 7c-1 .5-1.7 1.9-.8 2.5.5 0 1-.1 1.5-.1.1-1.1-.2-1.9-.7-2.4m-4.8.3c0 .7.1 1.3.1 2 .3 0 .7 0 1-.1 0-.7-.1-1.3-.1-2-.4 0-.7.1-1 .1M387 88.9c0-.8-3.3-.8-2.4.7 1.4.3 1.2-.8 2.4-.7m39.2-2.1c-1.4-1.6-1 2.6 0 0m174.1-9.1c-.2 2.6 2.1 1.6 3 2.7-.5-1.6-1.2-3-3-2.7m-127.8 9c-.3-1.2-1.9.1-1.4 1.1 1.1.2.6-1 1.4-1.1m64.6-2.2c-1 .4-1.9 3.2-.7 4 1.5-.2 1.5-3.1.7-4M413.3 96.3c0-.5-.6-.3-1-.4 0 .4.6.3 1 .4m-5.1 2.9c1.9 1.1 4.4-1 5-2.7-1.2 1.3-3.9 1.2-5 2.7m70.7-4.2c-.6.4-.8 1.1-.9 2 1.1-.3 2.1-1 .9-2m80.4-4.8c-1.1-.2-.6 1-1.4 1.1.3 1.2 2.3.2 1.4-1.1m-93.1 6.3c-1.5.5-3.6 2-2.7 3 1-.9 2.4-1.6 2.7-3m-75 7c-1.9.3-3.2 1.3-5 1.7.3.4.6.8.1.9 2.1 1.4 4.1-1.2 4.9-2.6m168.8-6c1.5-1.2 2.3-4.4-1.1-4-1.3 2.2-.4 2.8 1.1 4m-21.4 3.4c.5 3.1-1.8 8.1 1.1 9.6 2.3-.2 1.6-5.1 1.7-6 1-1 .9-3.8.8-6.8-.4-.3-.7-.7-.9-1.2-.4 0-.8.1-1.2.1-.7 1.3-.4 3.5-1.5 4.3m-30.5-2.1c-1.6 0-2 2.9.2 2.5.6-.7.5-1.9-.2-2.5m-37.2 25.7c-1.2.9-3 1.5-2.2 4 2.1-.3 1.8-2.4 2.2-4m114.8-9.2c-1.6-.5-.3 1.6-1.9 1.1.3 1.2 2.5.1 1.9-1.1m-20.2 17.6c-.1-.5-.8-.3-1.2-.3.1 5.1 3 9.2 3.8 14 2.4.2.6-3.7.1-4.3 0-4-2.6-7.2-2.7-9.4m-5.3-13.9c-.9.2-1.1.9-.9 2 .9-.1 1.1-.9.9-2m-68.2.4c-3 .8-4.9.4-5.8 3.1 2.3-.2 3.8-1.1 4.5-2.6 1.4.1 1.6-.7 2.5-.9.2-.8-1.9-.5-1.2.4m-6.3 2.9c-.8.1-1.9-.1-2 .6-.2 2 2 .1 2-.6"/>
  </g>
</svg>
